v -27.93943 13.70266 8.47834
v -28.11943 19.77901 8.47834
v -27.98154 13.70266 8.59405
v -27.98154 13.70266 8.59405
v -28.11943 19.77901 8.47834
v -28.08817 13.70266 8.65561
v -28.08817 13.70266 8.65561
v -28.11943 19.77901 8.47834
v -28.20943 13.70266 8.63423
v -28.20943 13.70266 8.63423
v -28.11943 19.77901 8.47834
v -28.28857 13.70266 8.53991
v -28.28857 13.70266 8.53991
v -28.11943 19.77901 8.47834
v -28.28857 13.70266 8.41678
v -28.28857 13.70266 8.41678
v -28.11943 19.77901 8.47834
v -28.20943 13.70266 8.32246
v -28.20943 13.70266 8.32246
v -28.11943 19.77901 8.47834
v -28.08817 13.70266 8.30108
v -28.08817 13.70266 8.30108
v -28.11943 19.77901 8.47834
v -27.98154 13.70266 8.36264
v -27.98154 13.70266 8.36264
v -28.11943 19.77901 8.47834
v -27.93943 13.70266 8.47834
v -24.15551 16.97904 30.18136
v -24.33551 21.51597 30.18136
v -24.19762 16.97904 30.29707
v -24.19762 16.97904 30.29707
v -24.33551 21.51597 30.18136
v -24.30425 16.97904 30.35863
v -24.30425 16.97904 30.35863
v -24.33551 21.51597 30.18136
v -24.42551 16.97904 30.33725
v -24.42551 16.97904 30.33725
v -24.33551 21.51597 30.18136
v -24.50466 16.97904 30.24293
v -24.50466 16.97904 30.24293
v -24.33551 21.51597 30.18136
v -24.50466 16.97904 30.11980
v -24.50466 16.97904 30.11980
v -24.33551 21.51597 30.18136
v -24.42551 16.97904 30.02548
v -24.42551 16.97904 30.02548
v -24.33551 21.51597 30.18136
v -24.30425 16.97904 30.00410
v -24.30425 16.97904 30.00410
v -24.33551 21.51597 30.18136
v -24.19762 16.97904 30.06566
v -24.19762 16.97904 30.06566
v -24.33551 21.51597 30.18136
v -24.15551 16.97904 30.18136
v 23.50601 0.70057 -6.74631
v 23.32601 6.36223 -6.74631
v 23.46390 0.70057 -6.63061
v 23.46390 0.70057 -6.63061
v 23.32601 6.36223 -6.74631
v 23.35727 0.70057 -6.56904
v 23.35727 0.70057 -6.56904
v 23.32601 6.36223 -6.74631
v 23.23601 0.70057 -6.59042
v 23.23601 0.70057 -6.59042
v 23.32601 6.36223 -6.74631
v 23.15687 0.70057 -6.68474
v 23.15687 0.70057 -6.68474
v 23.32601 6.36223 -6.74631
v 23.15687 0.70057 -6.80787
v 23.15687 0.70057 -6.80787
v 23.32601 6.36223 -6.74631
v 23.23601 0.70057 -6.90219
v 23.23601 0.70057 -6.90219
v 23.32601 6.36223 -6.74631
v 23.35727 0.70057 -6.92357
v 23.35727 0.70057 -6.92357
v 23.32601 6.36223 -6.74631
v 23.46390 0.70057 -6.86201
v 23.46390 0.70057 -6.86201
v 23.32601 6.36223 -6.74631
v 23.50601 0.70057 -6.74631
v 16.08849 20.60603 31.47578
v 15.90849 28.84757 31.47578
v 16.04638 20.60603 31.59148
v 16.04638 20.60603 31.59148
v 15.90849 28.84757 31.47578
v 15.93975 20.60603 31.65304
v 15.93975 20.60603 31.65304
v 15.90849 28.84757 31.47578
v 15.81849 20.60603 31.63166
v 15.81849 20.60603 31.63166
v 15.90849 28.84757 31.47578
v 15.73935 20.60603 31.53734
v 15.73935 20.60603 31.53734
v 15.90849 28.84757 31.47578
v 15.73935 20.60603 31.41421
v 15.73935 20.60603 31.41421
v 15.90849 28.84757 31.47578
v 15.81849 20.60603 31.31989
v 15.81849 20.60603 31.31989
v 15.90849 28.84757 31.47578
v 15.93975 20.60603 31.29851
v 15.93975 20.60603 31.29851
v 15.90849 28.84757 31.47578
v 16.04638 20.60603 31.36008
v 16.04638 20.60603 31.36008
v 15.90849 28.84757 31.47578
v 16.08849 20.60603 31.47578
v -11.45525 1.64183 1.46950
v -11.63525 8.42483 1.46950
v -11.49737 1.64183 1.58520
v -11.49737 1.64183 1.58520
v -11.63525 8.42483 1.46950
v -11.60400 1.64183 1.64676
v -11.60400 1.64183 1.64676
v -11.63525 8.42483 1.46950
v -11.72525 1.64183 1.62538
v -11.72525 1.64183 1.62538
v -11.63525 8.42483 1.46950
v -11.80440 1.64183 1.53106
v -11.80440 1.64183 1.53106
v -11.63525 8.42483 1.46950
v -11.80440 1.64183 1.40793
v -11.80440 1.64183 1.40793
v -11.63525 8.42483 1.46950
v -11.72525 1.64183 1.31361
v -11.72525 1.64183 1.31361
v -11.63525 8.42483 1.46950
v -11.60400 1.64183 1.29223
v -11.60400 1.64183 1.29223
v -11.63525 8.42483 1.46950
v -11.49737 1.64183 1.35379
v -11.49737 1.64183 1.35379
v -11.63525 8.42483 1.46950
v -11.45525 1.64183 1.46950
v 29.88102 23.98936 30.99653
v 29.70102 30.74951 30.99653
v 29.83891 23.98936 31.11223
v 29.83891 23.98936 31.11223
v 29.70102 30.74951 30.99653
v 29.73228 23.98936 31.17379
v 29.73228 23.98936 31.17379
v 29.70102 30.74951 30.99653
v 29.61102 23.98936 31.15241
v 29.61102 23.98936 31.15241
v 29.70102 30.74951 30.99653
v 29.53188 23.98936 31.05809
v 29.53188 23.98936 31.05809
v 29.70102 30.74951 30.99653
v 29.53188 23.98936 30.93496
v 29.53188 23.98936 30.93496
v 29.70102 30.74951 30.99653
v 29.61102 23.98936 30.84064
v 29.61102 23.98936 30.84064
v 29.70102 30.74951 30.99653
v 29.73228 23.98936 30.81926
v 29.73228 23.98936 30.81926
v 29.70102 30.74951 30.99653
v 29.83891 23.98936 30.88082
v 29.83891 23.98936 30.88082
v 29.70102 30.74951 30.99653
v 29.88102 23.98936 30.99653
v 30.06930 18.84151 22.39894
v 29.88930 27.49808 22.39894
v 30.02719 18.84151 22.51464
v 30.02719 18.84151 22.51464
v 29.88930 27.49808 22.39894
v 29.92056 18.84151 22.57621
v 29.92056 18.84151 22.57621
v 29.88930 27.49808 22.39894
v 29.79930 18.84151 22.55482
v 29.79930 18.84151 22.55482
v 29.88930 27.49808 22.39894
v 29.72015 18.84151 22.46050
v 29.72015 18.84151 22.46050
v 29.88930 27.49808 22.39894
v 29.72015 18.84151 22.33738
v 29.72015 18.84151 22.33738
v 29.88930 27.49808 22.39894
v 29.79930 18.84151 22.24306
v 29.79930 18.84151 22.24306
v 29.88930 27.49808 22.39894
v 29.92056 18.84151 22.22167
v 29.92056 18.84151 22.22167
v 29.88930 27.49808 22.39894
v 30.02719 18.84151 22.28324
v 30.02719 18.84151 22.28324
v 29.88930 27.49808 22.39894
v 30.06930 18.84151 22.39894
v -10.14986 0.56152 -16.09549
v -10.32986 8.15937 -16.09549
v -10.19198 0.56152 -15.97979
v -10.19198 0.56152 -15.97979
v -10.32986 8.15937 -16.09549
v -10.29861 0.56152 -15.91822
v -10.29861 0.56152 -15.91822
v -10.32986 8.15937 -16.09549
v -10.41986 0.56152 -15.93960
v -10.41986 0.56152 -15.93960
v -10.32986 8.15937 -16.09549
v -10.49901 0.56152 -16.03392
v -10.49901 0.56152 -16.03392
v -10.32986 8.15937 -16.09549
v -10.49901 0.56152 -16.15705
v -10.49901 0.56152 -16.15705
v -10.32986 8.15937 -16.09549
v -10.41986 0.56152 -16.25137
v -10.41986 0.56152 -16.25137
v -10.32986 8.15937 -16.09549
v -10.29861 0.56152 -16.27275
v -10.29861 0.56152 -16.27275
v -10.32986 8.15937 -16.09549
v -10.19198 0.56152 -16.21119
v -10.19198 0.56152 -16.21119
v -10.32986 8.15937 -16.09549
v -10.14986 0.56152 -16.09549
v 17.60081 18.65100 23.77276
v 17.42081 26.41081 23.77276
v 17.55870 18.65100 23.88846
v 17.55870 18.65100 23.88846
v 17.42081 26.41081 23.77276
v 17.45207 18.65100 23.95003
v 17.45207 18.65100 23.95003
v 17.42081 26.41081 23.77276
v 17.33081 18.65100 23.92864
v 17.33081 18.65100 23.92864
v 17.42081 26.41081 23.77276
v 17.25167 18.65100 23.83432
v 17.25167 18.65100 23.83432
v 17.42081 26.41081 23.77276
v 17.25167 18.65100 23.71120
v 17.25167 18.65100 23.71120
v 17.42081 26.41081 23.77276
v 17.33081 18.65100 23.61688
v 17.33081 18.65100 23.61688
v 17.42081 26.41081 23.77276
v 17.45207 18.65100 23.59549
v 17.45207 18.65100 23.59549
v 17.42081 26.41081 23.77276
v 17.55870 18.65100 23.65706
v 17.55870 18.65100 23.65706
v 17.42081 26.41081 23.77276
v 17.60081 18.65100 23.77276
v 27.97116 22.92798 28.28727
v 27.79116 28.64148 28.28727
v 27.92905 22.92798 28.40297
v 27.92905 22.92798 28.40297
v 27.79116 28.64148 28.28727
v 27.82241 22.92798 28.46454
v 27.82241 22.92798 28.46454
v 27.79116 28.64148 28.28727
v 27.70116 22.92798 28.44316
v 27.70116 22.92798 28.44316
v 27.79116 28.64148 28.28727
v 27.62201 22.92798 28.34883
v 27.62201 22.92798 28.34883
v 27.79116 28.64148 28.28727
v 27.62201 22.92798 28.22571
v 27.62201 22.92798 28.22571
v 27.79116 28.64148 28.28727
v 27.70116 22.92798 28.13139
v 27.70116 22.92798 28.13139
v 27.79116 28.64148 28.28727
v 27.82241 22.92798 28.11001
v 27.82241 22.92798 28.11001
v 27.79116 28.64148 28.28727
v 27.92905 22.92798 28.17157
v 27.92905 22.92798 28.17157
v 27.79116 28.64148 28.28727
v 27.97116 22.92798 28.28727
v 16.54636 1.19777 -0.41879
v 16.36636 5.77622 -0.41879
v 16.50425 1.19777 -0.30309
v 16.50425 1.19777 -0.30309
v 16.36636 5.77622 -0.41879
v 16.39762 1.19777 -0.24153
v 16.39762 1.19777 -0.24153
v 16.36636 5.77622 -0.41879
v 16.27636 1.19777 -0.26291
v 16.27636 1.19777 -0.26291
v 16.36636 5.77622 -0.41879
v 16.19722 1.19777 -0.35723
v 16.19722 1.19777 -0.35723
v 16.36636 5.77622 -0.41879
v 16.19722 1.19777 -0.48036
v 16.19722 1.19777 -0.48036
v 16.36636 5.77622 -0.41879
v 16.27636 1.19777 -0.57468
v 16.27636 1.19777 -0.57468
v 16.36636 5.77622 -0.41879
v 16.39762 1.19777 -0.59606
v 16.39762 1.19777 -0.59606
v 16.36636 5.77622 -0.41879
v 16.50425 1.19777 -0.53449
v 16.50425 1.19777 -0.53449
v 16.36636 5.77622 -0.41879
v 16.54636 1.19777 -0.41879
v -17.39029 1.20675 -0.02802
v -17.57029 7.18884 -0.02802
v -17.43240 1.20675 0.08768
v -17.43240 1.20675 0.08768
v -17.57029 7.18884 -0.02802
v -17.53903 1.20675 0.14924
v -17.53903 1.20675 0.14924
v -17.57029 7.18884 -0.02802
v -17.66029 1.20675 0.12786
v -17.66029 1.20675 0.12786
v -17.57029 7.18884 -0.02802
v -17.73943 1.20675 0.03354
v -17.73943 1.20675 0.03354
v -17.57029 7.18884 -0.02802
v -17.73943 1.20675 -0.08959
v -17.73943 1.20675 -0.08959
v -17.57029 7.18884 -0.02802
v -17.66029 1.20675 -0.18391
v -17.66029 1.20675 -0.18391
v -17.57029 7.18884 -0.02802
v -17.53903 1.20675 -0.20529
v -17.53903 1.20675 -0.20529
v -17.57029 7.18884 -0.02802
v -17.43240 1.20675 -0.14372
v -17.43240 1.20675 -0.14372
v -17.57029 7.18884 -0.02802
v -17.39029 1.20675 -0.02802
v -33.21821 0.90940 -11.49888
v -33.39821 5.94502 -11.49888
v -33.26032 0.90940 -11.38318
v -33.26032 0.90940 -11.38318
v -33.39821 5.94502 -11.49888
v -33.36695 0.90940 -11.32162
v -33.36695 0.90940 -11.32162
v -33.39821 5.94502 -11.49888
v -33.48821 0.90940 -11.34300
v -33.48821 0.90940 -11.34300
v -33.39821 5.94502 -11.49888
v -33.56735 0.90940 -11.43732
v -33.56735 0.90940 -11.43732
v -33.39821 5.94502 -11.49888
v -33.56735 0.90940 -11.56045
v -33.56735 0.90940 -11.56045
v -33.39821 5.94502 -11.49888
v -33.48821 0.90940 -11.65477
v -33.48821 0.90940 -11.65477
v -33.39821 5.94502 -11.49888
v -33.36695 0.90940 -11.67615
v -33.36695 0.90940 -11.67615
v -33.39821 5.94502 -11.49888
v -33.26032 0.90940 -11.61459
v -33.26032 0.90940 -11.61459
v -33.39821 5.94502 -11.49888
v -33.21821 0.90940 -11.49888
v -16.24976 13.39729 6.70356
v -16.42976 19.69417 6.70356
v -16.29187 13.39729 6.81927
v -16.29187 13.39729 6.81927
v -16.42976 19.69417 6.70356
v -16.39850 13.39729 6.88083
v -16.39850 13.39729 6.88083
v -16.42976 19.69417 6.70356
v -16.51976 13.39729 6.85945
v -16.51976 13.39729 6.85945
v -16.42976 19.69417 6.70356
v -16.59890 13.39729 6.76513
v -16.59890 13.39729 6.76513
v -16.42976 19.69417 6.70356
v -16.59890 13.39729 6.64200
v -16.59890 13.39729 6.64200
v -16.42976 19.69417 6.70356
v -16.51976 13.39729 6.54768
v -16.51976 13.39729 6.54768
v -16.42976 19.69417 6.70356
v -16.39850 13.39729 6.52630
v -16.39850 13.39729 6.52630
v -16.42976 19.69417 6.70356
v -16.29187 13.39729 6.58786
v -16.29187 13.39729 6.58786
v -16.42976 19.69417 6.70356
v -16.24976 13.39729 6.70356
v 32.62495 12.01239 7.92782
v 32.44495 20.09240 7.92782
v 32.58284 12.01239 8.04353
v 32.58284 12.01239 8.04353
v 32.44495 20.09240 7.92782
v 32.47620 12.01239 8.10509
v 32.47620 12.01239 8.10509
v 32.44495 20.09240 7.92782
v 32.35495 12.01239 8.08371
v 32.35495 12.01239 8.08371
v 32.44495 20.09240 7.92782
v 32.27580 12.01239 7.98939
v 32.27580 12.01239 7.98939
v 32.44495 20.09240 7.92782
v 32.27580 12.01239 7.86626
v 32.27580 12.01239 7.86626
v 32.44495 20.09240 7.92782
v 32.35495 12.01239 7.77194
v 32.35495 12.01239 7.77194
v 32.44495 20.09240 7.92782
v 32.47620 12.01239 7.75056
v 32.47620 12.01239 7.75056
v 32.44495 20.09240 7.92782
v 32.58284 12.01239 7.81212
v 32.58284 12.01239 7.81212
v 32.44495 20.09240 7.92782
v 32.62495 12.01239 7.92782
v 14.96443 13.05355 12.87446
v 14.78443 18.06643 12.87446
v 14.92232 13.05355 12.99016
v 14.92232 13.05355 12.99016
v 14.78443 18.06643 12.87446
v 14.81569 13.05355 13.05172
v 14.81569 13.05355 13.05172
v 14.78443 18.06643 12.87446
v 14.69443 13.05355 13.03034
v 14.69443 13.05355 13.03034
v 14.78443 18.06643 12.87446
v 14.61529 13.05355 12.93602
v 14.61529 13.05355 12.93602
v 14.78443 18.06643 12.87446
v 14.61529 13.05355 12.81290
v 14.61529 13.05355 12.81290
v 14.78443 18.06643 12.87446
v 14.69443 13.05355 12.71857
v 14.69443 13.05355 12.71857
v 14.78443 18.06643 12.87446
v 14.81569 13.05355 12.69719
v 14.81569 13.05355 12.69719
v 14.78443 18.06643 12.87446
v 14.92232 13.05355 12.75876
v 14.92232 13.05355 12.75876
v 14.78443 18.06643 12.87446
v 14.96443 13.05355 12.87446
v -31.46940 15.34574 17.43477
v -31.64940 23.88265 17.43477
v -31.51151 15.34574 17.55047
v -31.51151 15.34574 17.55047
v -31.64940 23.88265 17.43477
v -31.61814 15.34574 17.61204
v -31.61814 15.34574 17.61204
v -31.64940 23.88265 17.43477
v -31.73940 15.34574 17.59066
v -31.73940 15.34574 17.59066
v -31.64940 23.88265 17.43477
v -31.81854 15.34574 17.49634
v -31.81854 15.34574 17.49634
v -31.64940 23.88265 17.43477
v -31.81854 15.34574 17.37321
v -31.81854 15.34574 17.37321
v -31.64940 23.88265 17.43477
v -31.73940 15.34574 17.27889
v -31.73940 15.34574 17.27889
v -31.64940 23.88265 17.43477
v -31.61814 15.34574 17.25751
v -31.61814 15.34574 17.25751
v -31.64940 23.88265 17.43477
v -31.51151 15.34574 17.31907
v -31.51151 15.34574 17.31907
v -31.64940 23.88265 17.43477
v -31.46940 15.34574 17.43477
v -19.25369 0.40576 -17.59668
v -19.43369 6.37642 -17.59668
v -19.29580 0.40576 -17.48098
v -19.29580 0.40576 -17.48098
v -19.43369 6.37642 -17.59668
v -19.40243 0.40576 -17.41942
v -19.40243 0.40576 -17.41942
v -19.43369 6.37642 -17.59668
v -19.52369 0.40576 -17.44080
v -19.52369 0.40576 -17.44080
v -19.43369 6.37642 -17.59668
v -19.60283 0.40576 -17.53512
v -19.60283 0.40576 -17.53512
v -19.43369 6.37642 -17.59668
v -19.60283 0.40576 -17.65825
v -19.60283 0.40576 -17.65825
v -19.43369 6.37642 -17.59668
v -19.52369 0.40576 -17.75257
v -19.52369 0.40576 -17.75257
v -19.43369 6.37642 -17.59668
v -19.40243 0.40576 -17.77395
v -19.40243 0.40576 -17.77395
v -19.43369 6.37642 -17.59668
v -19.29580 0.40576 -17.71238
v -19.29580 0.40576 -17.71238
v -19.43369 6.37642 -17.59668
v -19.25369 0.40576 -17.59668
v -26.24029 0.77287 -17.08565
v -26.42029 7.35904 -17.08565
v -26.28240 0.77287 -16.96995
v -26.28240 0.77287 -16.96995
v -26.42029 7.35904 -17.08565
v -26.38903 0.77287 -16.90839
v -26.38903 0.77287 -16.90839
v -26.42029 7.35904 -17.08565
v -26.51029 0.77287 -16.92977
v -26.51029 0.77287 -16.92977
v -26.42029 7.35904 -17.08565
v -26.58943 0.77287 -17.02409
v -26.58943 0.77287 -17.02409
v -26.42029 7.35904 -17.08565
v -26.58943 0.77287 -17.14722
v -26.58943 0.77287 -17.14722
v -26.42029 7.35904 -17.08565
v -26.51029 0.77287 -17.24154
v -26.51029 0.77287 -17.24154
v -26.42029 7.35904 -17.08565
v -26.38903 0.77287 -17.26292
v -26.38903 0.77287 -17.26292
v -26.42029 7.35904 -17.08565
v -26.28240 0.77287 -17.20136
v -26.28240 0.77287 -17.20136
v -26.42029 7.35904 -17.08565
v -26.24029 0.77287 -17.08565
v 12.77576 14.47854 19.47594
v 12.59576 21.48530 19.47594
v 12.73365 14.47854 19.59164
v 12.73365 14.47854 19.59164
v 12.59576 21.48530 19.47594
v 12.62701 14.47854 19.65321
v 12.62701 14.47854 19.65321
v 12.59576 21.48530 19.47594
v 12.50576 14.47854 19.63182
v 12.50576 14.47854 19.63182
v 12.59576 21.48530 19.47594
v 12.42661 14.47854 19.53750
v 12.42661 14.47854 19.53750
v 12.59576 21.48530 19.47594
v 12.42661 14.47854 19.41438
v 12.42661 14.47854 19.41438
v 12.59576 21.48530 19.47594
v 12.50576 14.47854 19.32006
v 12.50576 14.47854 19.32006
v 12.59576 21.48530 19.47594
v 12.62701 14.47854 19.29867
v 12.62701 14.47854 19.29867
v 12.59576 21.48530 19.47594
v 12.73365 14.47854 19.36024
v 12.73365 14.47854 19.36024
v 12.59576 21.48530 19.47594
v 12.77576 14.47854 19.47594
v 28.19445 25.28378 32.91512
v 28.01445 33.47453 32.91512
v 28.15234 25.28378 33.03082
v 28.15234 25.28378 33.03082
v 28.01445 33.47453 32.91512
v 28.04571 25.28378 33.09238
v 28.04571 25.28378 33.09238
v 28.01445 33.47453 32.91512
v 27.92445 25.28378 33.07100
v 27.92445 25.28378 33.07100
v 28.01445 33.47453 32.91512
v 27.84531 25.28378 32.97668
v 27.84531 25.28378 32.97668
v 28.01445 33.47453 32.91512
v 27.84531 25.28378 32.85355
v 27.84531 25.28378 32.85355
v 28.01445 33.47453 32.91512
v 27.92445 25.28378 32.75923
v 27.92445 25.28378 32.75923
v 28.01445 33.47453 32.91512
v 28.04571 25.28378 32.73785
v 28.04571 25.28378 32.73785
v 28.01445 33.47453 32.91512
v 28.15234 25.28378 32.79942
v 28.15234 25.28378 32.79942
v 28.01445 33.47453 32.91512
v 28.19445 25.28378 32.91512
v -16.07133 0.66094 -13.19326
v -16.25133 5.31520 -13.19326
v -16.11344 0.66094 -13.07756
v -16.11344 0.66094 -13.07756
v -16.25133 5.31520 -13.19326
v -16.22007 0.66094 -13.01600
v -16.22007 0.66094 -13.01600
v -16.25133 5.31520 -13.19326
v -16.34133 0.66094 -13.03738
v -16.34133 0.66094 -13.03738
v -16.25133 5.31520 -13.19326
v -16.42047 0.66094 -13.13170
v -16.42047 0.66094 -13.13170
v -16.25133 5.31520 -13.19326
v -16.42047 0.66094 -13.25483
v -16.42047 0.66094 -13.25483
v -16.25133 5.31520 -13.19326
v -16.34133 0.66094 -13.34915
v -16.34133 0.66094 -13.34915
v -16.25133 5.31520 -13.19326
v -16.22007 0.66094 -13.37053
v -16.22007 0.66094 -13.37053
v -16.25133 5.31520 -13.19326
v -16.11344 0.66094 -13.30897
v -16.11344 0.66094 -13.30897
v -16.25133 5.31520 -13.19326
v -16.07133 0.66094 -13.19326
v -14.48670 0.72322 -8.89076
v -14.66670 7.02083 -8.89076
v -14.52882 0.72322 -8.77506
v -14.52882 0.72322 -8.77506
v -14.66670 7.02083 -8.89076
v -14.63545 0.72322 -8.71349
v -14.63545 0.72322 -8.71349
v -14.66670 7.02083 -8.89076
v -14.75670 0.72322 -8.73487
v -14.75670 0.72322 -8.73487
v -14.66670 7.02083 -8.89076
v -14.83585 0.72322 -8.82920
v -14.83585 0.72322 -8.82920
v -14.66670 7.02083 -8.89076
v -14.83585 0.72322 -8.95232
v -14.83585 0.72322 -8.95232
v -14.66670 7.02083 -8.89076
v -14.75670 0.72322 -9.04664
v -14.75670 0.72322 -9.04664
v -14.66670 7.02083 -8.89076
v -14.63545 0.72322 -9.06802
v -14.63545 0.72322 -9.06802
v -14.66670 7.02083 -8.89076
v -14.52882 0.72322 -9.00646
v -14.52882 0.72322 -9.00646
v -14.66670 7.02083 -8.89076
v -14.48670 0.72322 -8.89076
v -14.70219 1.15867 -2.26489
v -14.88219 9.59808 -2.26489
v -14.74430 1.15867 -2.14919
v -14.74430 1.15867 -2.14919
v -14.88219 9.59808 -2.26489
v -14.85093 1.15867 -2.08762
v -14.85093 1.15867 -2.08762
v -14.88219 9.59808 -2.26489
v -14.97219 1.15867 -2.10901
v -14.97219 1.15867 -2.10901
v -14.88219 9.59808 -2.26489
v -15.05133 1.15867 -2.20333
v -15.05133 1.15867 -2.20333
v -14.88219 9.59808 -2.26489
v -15.05133 1.15867 -2.32645
v -15.05133 1.15867 -2.32645
v -14.88219 9.59808 -2.26489
v -14.97219 1.15867 -2.42077
v -14.97219 1.15867 -2.42077
v -14.88219 9.59808 -2.26489
v -14.85093 1.15867 -2.44216
v -14.85093 1.15867 -2.44216
v -14.88219 9.59808 -2.26489
v -14.74430 1.15867 -2.38059
v -14.74430 1.15867 -2.38059
v -14.88219 9.59808 -2.26489
v -14.70219 1.15867 -2.26489
v 32.34775 12.78635 10.46816
v 32.16775 18.58235 10.46816
v 32.30564 12.78635 10.58386
v 32.30564 12.78635 10.58386
v 32.16775 18.58235 10.46816
v 32.19901 12.78635 10.64542
v 32.19901 12.78635 10.64542
v 32.16775 18.58235 10.46816
v 32.07775 12.78635 10.62404
v 32.07775 12.78635 10.62404
v 32.16775 18.58235 10.46816
v 31.99861 12.78635 10.52972
v 31.99861 12.78635 10.52972
v 32.16775 18.58235 10.46816
v 31.99861 12.78635 10.40659
v 31.99861 12.78635 10.40659
v 32.16775 18.58235 10.46816
v 32.07775 12.78635 10.31227
v 32.07775 12.78635 10.31227
v 32.16775 18.58235 10.46816
v 32.19901 12.78635 10.29089
v 32.19901 12.78635 10.29089
v 32.16775 18.58235 10.46816
v 32.30564 12.78635 10.35246
v 32.30564 12.78635 10.35246
v 32.16775 18.58235 10.46816
v 32.34775 12.78635 10.46816
v 14.29292 19.84819 31.54463
v 14.11292 24.44036 31.54463
v 14.25081 19.84819 31.66034
v 14.25081 19.84819 31.66034
v 14.11292 24.44036 31.54463
v 14.14418 19.84819 31.72190
v 14.14418 19.84819 31.72190
v 14.11292 24.44036 31.54463
v 14.02292 19.84819 31.70052
v 14.02292 19.84819 31.70052
v 14.11292 24.44036 31.54463
v 13.94378 19.84819 31.60620
v 13.94378 19.84819 31.60620
v 14.11292 24.44036 31.54463
v 13.94378 19.84819 31.48307
v 13.94378 19.84819 31.48307
v 14.11292 24.44036 31.54463
v 14.02292 19.84819 31.38875
v 14.02292 19.84819 31.38875
v 14.11292 24.44036 31.54463
v 14.14418 19.84819 31.36737
v 14.14418 19.84819 31.36737
v 14.11292 24.44036 31.54463
v 14.25081 19.84819 31.42893
v 14.25081 19.84819 31.42893
v 14.11292 24.44036 31.54463
v 14.29292 19.84819 31.54463
v 28.72989 13.56763 10.58855
v 28.54989 20.36673 10.58855
v 28.68778 13.56763 10.70425
v 28.68778 13.56763 10.70425
v 28.54989 20.36673 10.58855
v 28.58115 13.56763 10.76582
v 28.58115 13.56763 10.76582
v 28.54989 20.36673 10.58855
v 28.45989 13.56763 10.74444
v 28.45989 13.56763 10.74444
v 28.54989 20.36673 10.58855
v 28.38075 13.56763 10.65012
v 28.38075 13.56763 10.65012
v 28.54989 20.36673 10.58855
v 28.38075 13.56763 10.52699
v 28.38075 13.56763 10.52699
v 28.54989 20.36673 10.58855
v 28.45989 13.56763 10.43267
v 28.45989 13.56763 10.43267
v 28.54989 20.36673 10.58855
v 28.58115 13.56763 10.41129
v 28.58115 13.56763 10.41129
v 28.54989 20.36673 10.58855
v 28.68778 13.56763 10.47285
v 28.68778 13.56763 10.47285
v 28.54989 20.36673 10.58855
v 28.72989 13.56763 10.58855
v 33.99353 18.07793 21.86024
v 33.81353 23.76833 21.86024
v 33.95142 18.07793 21.97594
v 33.95142 18.07793 21.97594
v 33.81353 23.76833 21.86024
v 33.84478 18.07793 22.03751
v 33.84478 18.07793 22.03751
v 33.81353 23.76833 21.86024
v 33.72353 18.07793 22.01613
v 33.72353 18.07793 22.01613
v 33.81353 23.76833 21.86024
v 33.64438 18.07793 21.92180
v 33.64438 18.07793 21.92180
v 33.81353 23.76833 21.86024
v 33.64438 18.07793 21.79868
v 33.64438 18.07793 21.79868
v 33.81353 23.76833 21.86024
v 33.72353 18.07793 21.70436
v 33.72353 18.07793 21.70436
v 33.81353 23.76833 21.86024
v 33.84478 18.07793 21.68298
v 33.84478 18.07793 21.68298
v 33.81353 23.76833 21.86024
v 33.95142 18.07793 21.74454
v 33.95142 18.07793 21.74454
v 33.81353 23.76833 21.86024
v 33.99353 18.07793 21.86024
v 28.78493 18.71273 21.78605
v 28.60493 25.35353 21.78605
v 28.74282 18.71273 21.90175
v 28.74282 18.71273 21.90175
v 28.60493 25.35353 21.78605
v 28.63619 18.71273 21.96331
v 28.63619 18.71273 21.96331
v 28.60493 25.35353 21.78605
v 28.51493 18.71273 21.94193
v 28.51493 18.71273 21.94193
v 28.60493 25.35353 21.78605
v 28.43578 18.71273 21.84761
v 28.43578 18.71273 21.84761
v 28.60493 25.35353 21.78605
v 28.43578 18.71273 21.72449
v 28.43578 18.71273 21.72449
v 28.60493 25.35353 21.78605
v 28.51493 18.71273 21.63016
v 28.51493 18.71273 21.63016
v 28.60493 25.35353 21.78605
v 28.63619 18.71273 21.60878
v 28.63619 18.71273 21.60878
v 28.60493 25.35353 21.78605
v 28.74282 18.71273 21.67035
v 28.74282 18.71273 21.67035
v 28.60493 25.35353 21.78605
v 28.78493 18.71273 21.78605
v -16.98042 15.56124 32.74450
v -17.16042 20.85703 32.74450
v -17.02253 15.56124 32.86020
v -17.02253 15.56124 32.86020
v -17.16042 20.85703 32.74450
v -17.12916 15.56124 32.92177
v -17.12916 15.56124 32.92177
v -17.16042 20.85703 32.74450
v -17.25042 15.56124 32.90039
v -17.25042 15.56124 32.90039
v -17.16042 20.85703 32.74450
v -17.32956 15.56124 32.80606
v -17.32956 15.56124 32.80606
v -17.16042 20.85703 32.74450
v -17.32956 15.56124 32.68294
v -17.32956 15.56124 32.68294
v -17.16042 20.85703 32.74450
v -17.25042 15.56124 32.58862
v -17.25042 15.56124 32.58862
v -17.16042 20.85703 32.74450
v -17.12916 15.56124 32.56724
v -17.12916 15.56124 32.56724
v -17.16042 20.85703 32.74450
v -17.02253 15.56124 32.62880
v -17.02253 15.56124 32.62880
v -17.16042 20.85703 32.74450
v -16.98042 15.56124 32.74450
v 12.24541 16.96521 27.00932
v 12.06541 22.09615 27.00932
v 12.20329 16.96521 27.12502
v 12.20329 16.96521 27.12502
v 12.06541 22.09615 27.00932
v 12.09666 16.96521 27.18659
v 12.09666 16.96521 27.18659
v 12.06541 22.09615 27.00932
v 11.97541 16.96521 27.16521
v 11.97541 16.96521 27.16521
v 12.06541 22.09615 27.00932
v 11.89626 16.96521 27.07089
v 11.89626 16.96521 27.07089
v 12.06541 22.09615 27.00932
v 11.89626 16.96521 26.94776
v 11.89626 16.96521 26.94776
v 12.06541 22.09615 27.00932
v 11.97541 16.96521 26.85344
v 11.97541 16.96521 26.85344
v 12.06541 22.09615 27.00932
v 12.09666 16.96521 26.83206
v 12.09666 16.96521 26.83206
v 12.06541 22.09615 27.00932
v 12.20329 16.96521 26.89362
v 12.20329 16.96521 26.89362
v 12.06541 22.09615 27.00932
v 12.24541 16.96521 27.00932
vt -7.53399 5.80647
vt -7.58799 7.62937
vt -7.53506 5.82961
vt -7.53506 5.82961
vt -7.58799 7.62937
vt -7.56089 5.84192
vt -7.56089 5.84192
vt -7.58799 7.62937
vt -7.59941 5.83764
vt -7.59941 5.83764
vt -7.58799 7.62937
vt -7.63258 5.81878
vt -7.63258 5.81878
vt -7.58799 7.62937
vt -7.64489 5.79415
vt -7.64489 5.79415
vt -7.58799 7.62937
vt -7.63058 5.77529
vt -7.63058 5.77529
vt -7.58799 7.62937
vt -7.59634 5.77101
vt -7.59634 5.77101
vt -7.58799 7.62937
vt -7.55820 5.78333
vt -7.55820 5.78333
vt -7.58799 7.62937
vt -7.53399 5.80647
vt -4.22852 11.12998
vt -4.28252 12.49106
vt -4.22958 11.15312
vt -4.22958 11.15312
vt -4.28252 12.49106
vt -4.25541 11.16544
vt -4.25541 11.16544
vt -4.28252 12.49106
vt -4.29393 11.16116
vt -4.29393 11.16116
vt -4.28252 12.49106
vt -4.32710 11.14230
vt -4.32710 11.14230
vt -4.28252 12.49106
vt -4.33942 11.11767
vt -4.33942 11.11767
vt -4.28252 12.49106
vt -4.32511 11.09881
vt -4.32511 11.09881
vt -4.28252 12.49106
vt -4.29087 11.09453
vt -4.29087 11.09453
vt -4.28252 12.49106
vt -4.25272 11.10684
vt -4.25272 11.10684
vt -4.28252 12.49106
vt -4.22852 11.12998
vt 6.37717 -1.13909
vt 6.32317 0.55941
vt 6.37611 -1.11595
vt 6.37611 -1.11595
vt 6.32317 0.55941
vt 6.35028 -1.10364
vt 6.35028 -1.10364
vt 6.32317 0.55941
vt 6.31176 -1.10791
vt 6.31176 -1.10791
vt 6.32317 0.55941
vt 6.27859 -1.12678
vt 6.27859 -1.12678
vt 6.32317 0.55941
vt 6.26627 -1.15140
vt 6.26627 -1.15140
vt 6.32317 0.55941
vt 6.28058 -1.17027
vt 6.28058 -1.17027
vt 6.32317 0.55941
vt 6.31482 -1.17454
vt 6.31482 -1.17454
vt 6.32317 0.55941
vt 6.35297 -1.16223
vt 6.35297 -1.16223
vt 6.32317 0.55941
vt 6.37717 -1.13909
vt 7.97413 12.47696
vt 7.92013 14.94943
vt 7.97306 12.50010
vt 7.97306 12.50010
vt 7.92013 14.94943
vt 7.94723 12.51242
vt 7.94723 12.51242
vt 7.92013 14.94943
vt 7.90871 12.50814
vt 7.90871 12.50814
vt 7.92013 14.94943
vt 7.87554 12.48928
vt 7.87554 12.48928
vt 7.92013 14.94943
vt 7.86323 12.46465
vt 7.86323 12.46465
vt 7.92013 14.94943
vt 7.87754 12.44579
vt 7.87754 12.44579
vt 7.92013 14.94943
vt 7.91178 12.44151
vt 7.91178 12.44151
vt 7.92013 14.94943
vt 7.94992 12.45382
vt 7.94992 12.45382
vt 7.92013 14.94943
vt 7.97413 12.47696
vt -3.28963 0.78645
vt -3.34363 2.82135
vt -3.29069 0.80959
vt -3.29069 0.80959
vt -3.34363 2.82135
vt -3.31652 0.82190
vt -3.31652 0.82190
vt -3.34363 2.82135
vt -3.35504 0.81763
vt -3.35504 0.81763
vt -3.34363 2.82135
vt -3.38821 0.79876
vt -3.38821 0.79876
vt -3.34363 2.82135
vt -3.40053 0.77414
vt -3.40053 0.77414
vt -3.34363 2.82135
vt -3.38621 0.75527
vt -3.38621 0.75527
vt -3.34363 2.82135
vt -3.35198 0.75100
vt -3.35198 0.75100
vt -3.34363 2.82135
vt -3.31383 0.76331
vt -3.31383 0.76331
vt -3.34363 2.82135
vt -3.28963 0.78645
vt 12.06396 13.39611
vt 12.00996 15.42416
vt 12.06290 13.41925
vt 12.06290 13.41925
vt 12.00996 15.42416
vt 12.03706 13.43157
vt 12.03706 13.43157
vt 12.00996 15.42416
vt 11.99855 13.42729
vt 11.99855 13.42729
vt 12.00996 15.42416
vt 11.96537 13.40843
vt 11.96537 13.40843
vt 12.00996 15.42416
vt 11.95306 13.38380
vt 11.95306 13.38380
vt 12.00996 15.42416
vt 11.96737 13.36494
vt 11.96737 13.36494
vt 12.00996 15.42416
vt 12.00161 13.36066
vt 12.00161 13.36066
vt 12.00996 15.42416
vt 12.03976 13.37297
vt 12.03976 13.37297
vt 12.00996 15.42416
vt 12.06396 13.39611
vt 11.26068 10.13224
vt 11.20668 12.72921
vt 11.25962 10.15538
vt 11.25962 10.15538
vt 11.20668 12.72921
vt 11.23379 10.16769
vt 11.23379 10.16769
vt 11.20668 12.72921
vt 11.19527 10.16342
vt 11.19527 10.16342
vt 11.20668 12.72921
vt 11.16210 10.14455
vt 11.16210 10.14455
vt 11.20668 12.72921
vt 11.14978 10.11993
vt 11.14978 10.11993
vt 11.20668 12.72921
vt 11.16410 10.10106
vt 11.16410 10.10106
vt 11.20668 12.72921
vt 11.19833 10.09679
vt 11.19833 10.09679
vt 11.20668 12.72921
vt 11.23648 10.10910
vt 11.23648 10.10910
vt 11.20668 12.72921
vt 11.26068 10.13224
vt -4.65451 -3.05064
vt -4.70851 -0.77129
vt -4.65557 -3.02750
vt -4.65557 -3.02750
vt -4.70851 -0.77129
vt -4.68140 -3.01519
vt -4.68140 -3.01519
vt -4.70851 -0.77129
vt -4.71992 -3.01946
vt -4.71992 -3.01946
vt -4.70851 -0.77129
vt -4.75310 -3.03833
vt -4.75310 -3.03833
vt -4.70851 -0.77129
vt -4.76541 -3.06295
vt -4.76541 -3.06295
vt -4.70851 -0.77129
vt -4.75110 -3.08182
vt -4.75110 -3.08182
vt -4.70851 -0.77129
vt -4.71686 -3.08609
vt -4.71686 -3.08609
vt -4.70851 -0.77129
vt -4.67871 -3.07378
vt -4.67871 -3.07378
vt -4.70851 -0.77129
vt -4.65451 -3.05064
vt 7.65752 10.34985
vt 7.60352 12.67780
vt 7.65646 10.37299
vt 7.65646 10.37299
vt 7.60352 12.67780
vt 7.63062 10.38531
vt 7.63062 10.38531
vt 7.60352 12.67780
vt 7.59211 10.38103
vt 7.59211 10.38103
vt 7.60352 12.67780
vt 7.55893 10.36216
vt 7.55893 10.36216
vt 7.60352 12.67780
vt 7.54662 10.33754
vt 7.54662 10.33754
vt 7.60352 12.67780
vt 7.56093 10.31868
vt 7.56093 10.31868
vt 7.60352 12.67780
vt 7.59517 10.31440
vt 7.59517 10.31440
vt 7.60352 12.67780
vt 7.63332 10.32671
vt 7.63332 10.32671
vt 7.60352 12.67780
vt 7.65752 10.34985
vt 11.22007 12.53585
vt 11.16607 14.24990
vt 11.21901 12.55899
vt 11.21901 12.55899
vt 11.16607 14.24990
vt 11.19318 12.57130
vt 11.19318 12.57130
vt 11.16607 14.24990
vt 11.15466 12.56702
vt 11.15466 12.56702
vt 11.16607 14.24990
vt 11.12149 12.54816
vt 11.12149 12.54816
vt 11.16607 14.24990
vt 11.10917 12.52354
vt 11.10917 12.52354
vt 11.16607 14.24990
vt 11.12349 12.50467
vt 11.12349 12.50467
vt 11.16607 14.24990
vt 11.15772 12.50039
vt 11.15772 12.50039
vt 11.16607 14.24990
vt 11.19587 12.51271
vt 11.19587 12.51271
vt 11.16607 14.24990
vt 11.22007 12.53585
vt 4.92203 0.27557
vt 4.86803 1.64911
vt 4.92097 0.29871
vt 4.92097 0.29871
vt 4.86803 1.64911
vt 4.89513 0.31102
vt 4.89513 0.31102
vt 4.86803 1.64911
vt 4.85662 0.30675
vt 4.85662 0.30675
vt 4.86803 1.64911
vt 4.82344 0.28788
vt 4.82344 0.28788
vt 4.86803 1.64911
vt 4.81113 0.26326
vt 4.81113 0.26326
vt 4.86803 1.64911
vt 4.82544 0.24439
vt 4.82544 0.24439
vt 4.86803 1.64911
vt 4.85968 0.24012
vt 4.85968 0.24012
vt 4.86803 1.64911
vt 4.89783 0.25243
vt 4.89783 0.25243
vt 4.86803 1.64911
vt 4.92203 0.27557
vt -5.21989 0.35642
vt -5.27389 2.15105
vt -5.22095 0.37956
vt -5.22095 0.37956
vt -5.27389 2.15105
vt -5.24678 0.39187
vt -5.24678 0.39187
vt -5.27389 2.15105
vt -5.28530 0.38760
vt -5.28530 0.38760
vt -5.27389 2.15105
vt -5.31847 0.36873
vt -5.31847 0.36873
vt -5.27389 2.15105
vt -5.33079 0.34411
vt -5.33079 0.34411
vt -5.27389 2.15105
vt -5.31648 0.32524
vt -5.31648 0.32524
vt -5.27389 2.15105
vt -5.28224 0.32097
vt -5.28224 0.32097
vt -5.27389 2.15105
vt -5.24409 0.33328
vt -5.24409 0.33328
vt -5.27389 2.15105
vt -5.21989 0.35642
vt -11.11535 -2.02696
vt -11.16935 -0.51627
vt -11.11641 -2.00382
vt -11.11641 -2.00382
vt -11.16935 -0.51627
vt -11.14225 -1.99150
vt -11.14225 -1.99150
vt -11.16935 -0.51627
vt -11.18076 -1.99578
vt -11.18076 -1.99578
vt -11.16935 -0.51627
vt -11.21394 -2.01464
vt -11.21394 -2.01464
vt -11.16935 -0.51627
vt -11.22625 -2.03927
vt -11.22625 -2.03927
vt -11.16935 -0.51627
vt -11.21194 -2.05813
vt -11.21194 -2.05813
vt -11.16935 -0.51627
vt -11.17770 -2.06241
vt -11.17770 -2.06241
vt -11.16935 -0.51627
vt -11.13955 -2.05010
vt -11.13955 -2.05010
vt -11.16935 -0.51627
vt -11.11535 -2.02696
vt -4.20457 5.35990
vt -4.25857 7.24897
vt -4.20563 5.38304
vt -4.20563 5.38304
vt -4.25857 7.24897
vt -4.23147 5.39535
vt -4.23147 5.39535
vt -4.25857 7.24897
vt -4.26998 5.39108
vt -4.26998 5.39108
vt -4.25857 7.24897
vt -4.30316 5.37221
vt -4.30316 5.37221
vt -4.25857 7.24897
vt -4.31547 5.34759
vt -4.31547 5.34759
vt -4.25857 7.24897
vt -4.30116 5.32872
vt -4.30116 5.32872
vt -4.25857 7.24897
vt -4.26692 5.32445
vt -4.26692 5.32445
vt -4.25857 7.24897
vt -4.22877 5.33676
vt -4.22877 5.33676
vt -4.25857 7.24897
vt -4.20457 5.35990
vt 10.58027 5.18928
vt 10.52627 7.61328
vt 10.57920 5.21242
vt 10.57920 5.21242
vt 10.52627 7.61328
vt 10.55337 5.22474
vt 10.55337 5.22474
vt 10.52627 7.61328
vt 10.51485 5.22046
vt 10.51485 5.22046
vt 10.52627 7.61328
vt 10.48168 5.20159
vt 10.48168 5.20159
vt 10.52627 7.61328
vt 10.46937 5.17697
vt 10.46937 5.17697
vt 10.52627 7.61328
vt 10.48368 5.15811
vt 10.48368 5.15811
vt 10.52627 7.61328
vt 10.51792 5.15383
vt 10.51792 5.15383
vt 10.52627 7.61328
vt 10.55606 5.16614
vt 10.55606 5.16614
vt 10.52627 7.61328
vt 10.58027 5.18928
vt 5.77678 6.49096
vt 5.72278 7.99482
vt 5.77571 6.51410
vt 5.77571 6.51410
vt 5.72278 7.99482
vt 5.74988 6.52641
vt 5.74988 6.52641
vt 5.72278 7.99482
vt 5.71136 6.52213
vt 5.71136 6.52213
vt 5.72278 7.99482
vt 5.67819 6.50327
vt 5.67819 6.50327
vt 5.72278 7.99482
vt 5.66588 6.47864
vt 5.66588 6.47864
vt 5.72278 7.99482
vt 5.68019 6.45978
vt 5.68019 6.45978
vt 5.72278 7.99482
vt 5.71443 6.45550
vt 5.71443 6.45550
vt 5.72278 7.99482
vt 5.75257 6.46782
vt 5.75257 6.46782
vt 5.72278 7.99482
vt 5.77678 6.49096
vt -7.69734 8.09068
vt -7.75134 10.65175
vt -7.69841 8.11382
vt -7.69841 8.11382
vt -7.75134 10.65175
vt -7.72424 8.12613
vt -7.72424 8.12613
vt -7.75134 10.65175
vt -7.76275 8.12185
vt -7.76275 8.12185
vt -7.75134 10.65175
vt -7.79593 8.10299
vt -7.79593 8.10299
vt -7.75134 10.65175
vt -7.80824 8.07836
vt -7.80824 8.07836
vt -7.75134 10.65175
vt -7.79393 8.05950
vt -7.79393 8.05950
vt -7.75134 10.65175
vt -7.75969 8.05522
vt -7.75969 8.05522
vt -7.75134 10.65175
vt -7.72155 8.06754
vt -7.72155 8.06754
vt -7.75134 10.65175
vt -7.69734 8.09068
vt -7.53577 -3.39761
vt -7.58977 -1.60641
vt -7.53684 -3.37447
vt -7.53684 -3.37447
vt -7.58977 -1.60641
vt -7.56267 -3.36216
vt -7.56267 -3.36216
vt -7.58977 -1.60641
vt -7.60119 -3.36643
vt -7.60119 -3.36643
vt -7.58977 -1.60641
vt -7.63436 -3.38530
vt -7.63436 -3.38530
vt -7.58977 -1.60641
vt -7.64667 -3.40992
vt -7.64667 -3.40992
vt -7.58977 -1.60641
vt -7.63236 -3.42879
vt -7.63236 -3.42879
vt -7.58977 -1.60641
vt -7.59812 -3.43306
vt -7.59812 -3.43306
vt -7.58977 -1.60641
vt -7.55998 -3.42075
vt -7.55998 -3.42075
vt -7.58977 -1.60641
vt -7.53577 -3.39761
vt -9.58065 -3.18527
vt -9.63465 -1.20942
vt -9.58172 -3.16213
vt -9.58172 -3.16213
vt -9.63465 -1.20942
vt -9.60755 -3.14982
vt -9.60755 -3.14982
vt -9.63465 -1.20942
vt -9.64606 -3.15409
vt -9.64606 -3.15409
vt -9.63465 -1.20942
vt -9.67924 -3.17296
vt -9.67924 -3.17296
vt -9.63465 -1.20942
vt -9.69155 -3.19758
vt -9.69155 -3.19758
vt -9.63465 -1.20942
vt -9.67724 -3.21645
vt -9.67724 -3.21645
vt -9.63465 -1.20942
vt -9.64300 -3.22072
vt -9.64300 -3.22072
vt -9.63465 -1.20942
vt -9.60486 -3.20841
vt -9.60486 -3.20841
vt -9.63465 -1.20942
vt -9.58065 -3.18527
vt 5.78032 8.23875
vt 5.72632 10.34078
vt 5.77926 8.26189
vt 5.77926 8.26189
vt 5.72632 10.34078
vt 5.75342 8.27420
vt 5.75342 8.27420
vt 5.72632 10.34078
vt 5.71491 8.26993
vt 5.71491 8.26993
vt 5.72632 10.34078
vt 5.68173 8.25106
vt 5.68173 8.25106
vt 5.72632 10.34078
vt 5.66942 8.22644
vt 5.66942 8.22644
vt 5.72632 10.34078
vt 5.68373 8.20757
vt 5.68373 8.20757
vt 5.72632 10.34078
vt 5.71797 8.20330
vt 5.71797 8.20330
vt 5.72632 10.34078
vt 5.75612 8.21561
vt 5.75612 8.21561
vt 5.72632 10.34078
vt 5.78032 8.23875
vt 11.74985 14.16816
vt 11.69585 16.62538
vt 11.74878 14.19130
vt 11.74878 14.19130
vt 11.69585 16.62538
vt 11.72295 14.20361
vt 11.72295 14.20361
vt 11.69585 16.62538
vt 11.68444 14.19934
vt 11.68444 14.19934
vt 11.69585 16.62538
vt 11.65126 14.18047
vt 11.65126 14.18047
vt 11.69585 16.62538
vt 11.63895 14.15585
vt 11.63895 14.15585
vt 11.69585 16.62538
vt 11.65326 14.13698
vt 11.65326 14.13698
vt 11.69585 16.62538
vt 11.68750 14.13271
vt 11.68750 14.13271
vt 11.69585 16.62538
vt 11.72564 14.14502
vt 11.72564 14.14502
vt 11.69585 16.62538
vt 11.74985 14.16816
vt -6.14072 -2.44037
vt -6.19472 -1.04409
vt -6.14179 -2.41723
vt -6.14179 -2.41723
vt -6.19472 -1.04409
vt -6.16762 -2.40492
vt -6.16762 -2.40492
vt -6.19472 -1.04409
vt -6.20614 -2.40919
vt -6.20614 -2.40919
vt -6.19472 -1.04409
vt -6.23931 -2.42806
vt -6.23931 -2.42806
vt -6.19472 -1.04409
vt -6.25162 -2.45268
vt -6.25162 -2.45268
vt -6.19472 -1.04409
vt -6.23731 -2.47155
vt -6.23731 -2.47155
vt -6.19472 -1.04409
vt -6.20307 -2.47582
vt -6.20307 -2.47582
vt -6.19472 -1.04409
vt -6.16493 -2.46351
vt -6.16493 -2.46351
vt -6.19472 -1.04409
vt -6.14072 -2.44037
vt -5.23509 -1.56119
vt -5.28909 0.32810
vt -5.23615 -1.53805
vt -5.23615 -1.53805
vt -5.28909 0.32810
vt -5.26198 -1.52573
vt -5.26198 -1.52573
vt -5.28909 0.32810
vt -5.30050 -1.53001
vt -5.30050 -1.53001
vt -5.28909 0.32810
vt -5.33367 -1.54887
vt -5.33367 -1.54887
vt -5.28909 0.32810
vt -5.34599 -1.57350
vt -5.34599 -1.57350
vt -5.28909 0.32810
vt -5.33168 -1.59236
vt -5.33168 -1.59236
vt -5.28909 0.32810
vt -5.29744 -1.59664
vt -5.29744 -1.59664
vt -5.28909 0.32810
vt -5.25929 -1.58433
vt -5.25929 -1.58433
vt -5.28909 0.32810
vt -5.23509 -1.56119
vt -4.63715 -0.10538
vt -4.69115 2.42645
vt -4.63821 -0.08224
vt -4.63821 -0.08224
vt -4.69115 2.42645
vt -4.66404 -0.06992
vt -4.66404 -0.06992
vt -4.69115 2.42645
vt -4.70256 -0.07420
vt -4.70256 -0.07420
vt -4.69115 2.42645
vt -4.73573 -0.09306
vt -4.73573 -0.09306
vt -4.69115 2.42645
vt -4.74805 -0.11769
vt -4.74805 -0.11769
vt -4.69115 2.42645
vt -4.73373 -0.13655
vt -4.73373 -0.13655
vt -4.69115 2.42645
vt -4.69949 -0.14083
vt -4.69949 -0.14083
vt -4.69115 2.42645
vt -4.66135 -0.12852
vt -4.66135 -0.12852
vt -4.69115 2.42645
vt -4.63715 -0.10538
vt 10.75114 5.92954
vt 10.69714 7.66834
vt 10.75008 5.95268
vt 10.75008 5.95268
vt 10.69714 7.66834
vt 10.72424 5.96499
vt 10.72424 5.96499
vt 10.69714 7.66834
vt 10.68573 5.96071
vt 10.68573 5.96071
vt 10.69714 7.66834
vt 10.65255 5.94185
vt 10.65255 5.94185
vt 10.69714 7.66834
vt 10.64024 5.91722
vt 10.64024 5.91722
vt 10.69714 7.66834
vt 10.65455 5.89836
vt 10.65455 5.89836
vt 10.69714 7.66834
vt 10.68879 5.89408
vt 10.68879 5.89408
vt 10.69714 7.66834
vt 10.72694 5.90640
vt 10.72694 5.90640
vt 10.69714 7.66834
vt 10.75114 5.92954
vt 7.44234 12.26338
vt 7.38834 13.64104
vt 7.44128 12.28652
vt 7.44128 12.28652
vt 7.38834 13.64104
vt 7.41544 12.29884
vt 7.41544 12.29884
vt 7.38834 13.64104
vt 7.37693 12.29456
vt 7.37693 12.29456
vt 7.38834 13.64104
vt 7.34375 12.27570
vt 7.34375 12.27570
vt 7.38834 13.64104
vt 7.33144 12.25107
vt 7.33144 12.25107
vt 7.38834 13.64104
vt 7.34575 12.23221
vt 7.34575 12.23221
vt 7.38834 13.64104
vt 7.37999 12.22793
vt 7.37999 12.22793
vt 7.38834 13.64104
vt 7.41814 12.24024
vt 7.41814 12.24024
vt 7.38834 13.64104
vt 7.44234 12.26338
vt 9.67782 6.18800
vt 9.62382 8.22773
vt 9.67676 6.21114
vt 9.67676 6.21114
vt 9.62382 8.22773
vt 9.65093 6.22345
vt 9.65093 6.22345
vt 9.62382 8.22773
vt 9.61241 6.21918
vt 9.61241 6.21918
vt 9.62382 8.22773
vt 9.57924 6.20031
vt 9.57924 6.20031
vt 9.62382 8.22773
vt 9.56692 6.17569
vt 9.56692 6.17569
vt 9.62382 8.22773
vt 9.58123 6.15682
vt 9.58123 6.15682
vt 9.62382 8.22773
vt 9.61547 6.15255
vt 9.61547 6.15255
vt 9.62382 8.22773
vt 9.65362 6.16486
vt 9.65362 6.16486
vt 9.62382 8.22773
vt 9.67782 6.18800
vt 12.38408 9.79543
vt 12.33008 11.50255
vt 12.38302 9.81857
vt 12.38302 9.81857
vt 12.33008 11.50255
vt 12.35719 9.83088
vt 12.35719 9.83088
vt 12.33008 11.50255
vt 12.31867 9.82660
vt 12.31867 9.82660
vt 12.33008 11.50255
vt 12.28550 9.80774
vt 12.28550 9.80774
vt 12.33008 11.50255
vt 12.27318 9.78311
vt 12.27318 9.78311
vt 12.33008 11.50255
vt 12.28749 9.76425
vt 12.28749 9.76425
vt 12.33008 11.50255
vt 12.32173 9.75997
vt 12.32173 9.75997
vt 12.33008 11.50255
vt 12.35988 9.77229
vt 12.35988 9.77229
vt 12.33008 11.50255
vt 12.38408 9.79543
vt 10.81408 9.97103
vt 10.76008 11.96327
vt 10.81302 9.99417
vt 10.81302 9.99417
vt 10.76008 11.96327
vt 10.78719 10.00648
vt 10.78719 10.00648
vt 10.76008 11.96327
vt 10.74867 10.00221
vt 10.74867 10.00221
vt 10.76008 11.96327
vt 10.71550 9.98334
vt 10.71550 9.98334
vt 10.76008 11.96327
vt 10.70318 9.95872
vt 10.70318 9.95872
vt 10.76008 11.96327
vt 10.71750 9.93985
vt 10.71750 9.93985
vt 10.76008 11.96327
vt 10.75173 9.93558
vt 10.75173 9.93558
vt 10.76008 11.96327
vt 10.78988 9.94789
vt 10.78988 9.94789
vt 10.76008 11.96327
vt 10.81408 9.97103
vt -1.81968 11.21727
vt -1.87368 12.80601
vt -1.82074 11.24041
vt -1.82074 11.24041
vt -1.87368 12.80601
vt -1.84657 11.25272
vt -1.84657 11.25272
vt -1.87368 12.80601
vt -1.88509 11.24845
vt -1.88509 11.24845
vt -1.87368 12.80601
vt -1.91826 11.22958
vt -1.91826 11.22958
vt -1.87368 12.80601
vt -1.93058 11.20496
vt -1.93058 11.20496
vt -1.87368 12.80601
vt -1.91626 11.18609
vt -1.91626 11.18609
vt -1.87368 12.80601
vt -1.88203 11.18182
vt -1.88203 11.18182
vt -1.87368 12.80601
vt -1.84388 11.19413
vt -1.84388 11.19413
vt -1.87368 12.80601
vt -1.81968 11.21727
vt 6.37455 10.49143
vt 6.32055 12.03071
vt 6.37349 10.51457
vt 6.37349 10.51457
vt 6.32055 12.03071
vt 6.34766 10.52688
vt 6.34766 10.52688
vt 6.32055 12.03071
vt 6.30914 10.52261
vt 6.30914 10.52261
vt 6.32055 12.03071
vt 6.27597 10.50374
vt 6.27597 10.50374
vt 6.32055 12.03071
vt 6.26365 10.47912
vt 6.26365 10.47912
vt 6.32055 12.03071
vt 6.27797 10.46025
vt 6.27797 10.46025
vt 6.32055 12.03071
vt 6.31220 10.45598
vt 6.31220 10.45598
vt 6.32055 12.03071
vt 6.35035 10.46829
vt 6.35035 10.46829
vt 6.32055 12.03071
vt 6.37455 10.49143
vn 0.93933 0.02783 0.34189
vn 0.49981 0.02783 0.86569
vn -0.17358 0.02783 0.98443
vn -0.76575 0.02783 0.64254
vn -0.99961 0.02783 0.00000
vn -0.76575 0.02783 -0.64254
vn -0.17358 0.02783 -0.98443
vn 0.49981 0.02783 -0.86569
vn 0.93933 0.02783 -0.34189
vn 0.93904 0.03726 0.34178
vn 0.49965 0.03726 0.86542
vn -0.17353 0.03726 0.98412
vn -0.76551 0.03726 0.64234
vn -0.99931 0.03726 0.00000
vn -0.76551 0.03726 -0.64234
vn -0.17353 0.03726 -0.98412
vn 0.49965 0.03726 -0.86542
vn 0.93904 0.03726 -0.34178
vn 0.93927 0.02986 0.34187
vn 0.49978 0.02986 0.86564
vn -0.17357 0.02986 0.98437
vn -0.76570 0.02986 0.64250
vn -0.99955 0.02986 0.00000
vn -0.76570 0.02986 -0.64250
vn -0.17357 0.02986 -0.98437
vn 0.49978 0.02986 -0.86564
vn 0.93927 0.02986 -0.34187
vn 0.93949 0.02052 0.34195
vn 0.49989 0.02052 0.86584
vn -0.17361 0.02052 0.98460
vn -0.76588 0.02052 0.64265
vn -0.99979 0.02052 0.00000
vn -0.76588 0.02052 -0.64265
vn -0.17361 0.02052 -0.98460
vn 0.49989 0.02052 -0.86584
vn 0.93949 0.02052 -0.34195
vn 0.93940 0.02493 0.34191
vn 0.49984 0.02493 0.86576
vn -0.17359 0.02493 0.98450
vn -0.76581 0.02493 0.64259
vn -0.99969 0.02493 0.00000
vn -0.76581 0.02493 -0.64259
vn -0.17359 0.02493 -0.98450
vn 0.49984 0.02493 -0.86576
vn 0.93940 0.02493 -0.34191
vn 0.93940 0.02501 0.34191
vn 0.49984 0.02501 0.86575
vn -0.17359 0.02501 0.98450
vn -0.76580 0.02501 0.64259
vn -0.99969 0.02501 0.00000
vn -0.76580 0.02501 -0.64259
vn -0.17359 0.02501 -0.98450
vn 0.49984 0.02501 -0.86575
vn 0.93940 0.02501 -0.34191
vn 0.93951 0.01954 0.34195
vn 0.49990 0.01954 0.86586
vn -0.17362 0.01954 0.98462
vn -0.76590 0.01954 0.64266
vn -0.99981 0.01954 0.00000
vn -0.76590 0.01954 -0.64266
vn -0.17362 0.01954 -0.98462
vn 0.49990 0.01954 -0.86586
vn 0.93951 0.01954 -0.34195
vn 0.93946 0.02226 0.34194
vn 0.49988 0.02226 0.86581
vn -0.17361 0.02226 0.98456
vn -0.76585 0.02226 0.64263
vn -0.99975 0.02226 0.00000
vn -0.76585 0.02226 -0.64263
vn -0.17361 0.02226 -0.98456
vn 0.49988 0.02226 -0.86581
vn 0.93946 0.02226 -0.34194
vn 0.93947 0.02179 0.34194
vn 0.49988 0.02179 0.86582
vn -0.17361 0.02179 0.98457
vn -0.76586 0.02179 0.64263
vn -0.99976 0.02179 0.00000
vn -0.76586 0.02179 -0.64263
vn -0.17361 0.02179 -0.98457
vn 0.49988 0.02179 -0.86582
vn 0.93947 0.02179 -0.34194
vn 0.93928 0.02959 0.34187
vn 0.49978 0.02959 0.86565
vn -0.17357 0.02959 0.98438
vn -0.76571 0.02959 0.64251
vn -0.99956 0.02959 0.00000
vn -0.76571 0.02959 -0.64251
vn -0.17357 0.02959 -0.98438
vn 0.49978 0.02959 -0.86565
vn 0.93928 0.02959 -0.34187
vn 0.93905 0.03692 0.34179
vn 0.49966 0.03692 0.86544
vn -0.17353 0.03692 0.98414
vn -0.76552 0.03692 0.64235
vn -0.99932 0.03692 0.00000
vn -0.76552 0.03692 -0.64235
vn -0.17353 0.03692 -0.98414
vn 0.49966 0.03692 -0.86544
vn 0.93905 0.03692 -0.34179
vn 0.93932 0.02826 0.34188
vn 0.49980 0.02826 0.86568
vn -0.17358 0.02826 0.98441
vn -0.76574 0.02826 0.64253
vn -0.99960 0.02826 0.00000
vn -0.76574 0.02826 -0.64253
vn -0.17358 0.02826 -0.98441
vn 0.49980 0.02826 -0.86568
vn 0.93932 0.02826 -0.34188
vn 0.93916 0.03357 0.34183
vn 0.49972 0.03357 0.86554
vn -0.17355 0.03357 0.98425
vn -0.76561 0.03357 0.64243
vn -0.99944 0.03357 0.00000
vn -0.76561 0.03357 -0.64243
vn -0.17355 0.03357 -0.98425
vn 0.49972 0.03357 -0.86554
vn 0.93916 0.03357 -0.34183
vn 0.93935 0.02685 0.34190
vn 0.49982 0.02685 0.86571
vn -0.17359 0.02685 0.98445
vn -0.76577 0.02685 0.64256
vn -0.99964 0.02685 0.00000
vn -0.76577 0.02685 -0.64256
vn -0.17359 0.02685 -0.98445
vn 0.49982 0.02685 -0.86571
vn 0.93935 0.02685 -0.34190
vn 0.93949 0.02093 0.34195
vn 0.49989 0.02093 0.86584
vn -0.17361 0.02093 0.98459
vn -0.76588 0.02093 0.64265
vn -0.99978 0.02093 0.00000
vn -0.76588 0.02093 -0.64265
vn -0.17361 0.02093 -0.98459
vn 0.49989 0.02093 -0.86584
vn 0.93949 0.02093 -0.34195
vn 0.93916 0.03372 0.34183
vn 0.49972 0.03372 0.86553
vn -0.17355 0.03372 0.98425
vn -0.76561 0.03372 0.64242
vn -0.99943 0.03372 0.00000
vn -0.76561 0.03372 -0.64242
vn -0.17355 0.03372 -0.98425
vn 0.49972 0.03372 -0.86553
vn 0.93916 0.03372 -0.34183
vn 0.93951 0.01981 0.34195
vn 0.49990 0.01981 0.86586
vn -0.17361 0.01981 0.98461
vn -0.76589 0.01981 0.64266
vn -0.99980 0.01981 0.00000
vn -0.76589 0.01981 -0.64266
vn -0.17361 0.01981 -0.98461
vn 0.49990 0.01981 -0.86586
vn 0.93951 0.01981 -0.34195
vn 0.93932 0.02832 0.34188
vn 0.49980 0.02832 0.86568
vn -0.17358 0.02832 0.98441
vn -0.76574 0.02832 0.64253
vn -0.99960 0.02832 0.00000
vn -0.76574 0.02832 -0.64253
vn -0.17358 0.02832 -0.98441
vn 0.49980 0.02832 -0.86568
vn 0.93932 0.02832 -0.34188
vn 0.93938 0.02567 0.34191
vn 0.49984 0.02567 0.86574
vn -0.17359 0.02567 0.98448
vn -0.76579 0.02567 0.64258
vn -0.99967 0.02567 0.00000
vn -0.76579 0.02567 -0.64258
vn -0.17359 0.02567 -0.98448
vn 0.49984 0.02567 -0.86574
vn 0.93938 0.02567 -0.34191
vn 0.93942 0.02413 0.34192
vn 0.49985 0.02413 0.86577
vn -0.17360 0.02413 0.98452
vn -0.76582 0.02413 0.64260
vn -0.99971 0.02413 0.00000
vn -0.76582 0.02413 -0.64260
vn -0.17360 0.02413 -0.98452
vn 0.49985 0.02413 -0.86577
vn 0.93942 0.02413 -0.34192
vn 0.93949 0.02065 0.34195
vn 0.49989 0.02065 0.86584
vn -0.17361 0.02065 0.98460
vn -0.76588 0.02065 0.64265
vn -0.99979 0.02065 0.00000
vn -0.76588 0.02065 -0.64265
vn -0.17361 0.02065 -0.98460
vn 0.49989 0.02065 -0.86584
vn 0.93949 0.02065 -0.34195
vn 0.93907 0.03632 0.34179
vn 0.49967 0.03632 0.86545
vn -0.17353 0.03632 0.98416
vn -0.76554 0.03632 0.64236
vn -0.99934 0.03632 0.00000
vn -0.76554 0.03632 -0.64236
vn -0.17353 0.03632 -0.98416
vn 0.49967 0.03632 -0.86545
vn 0.93907 0.03632 -0.34179
vn 0.93935 0.02685 0.34190
vn 0.49982 0.02685 0.86571
vn -0.17359 0.02685 0.98445
vn -0.76577 0.02685 0.64256
vn -0.99964 0.02685 0.00000
vn -0.76577 0.02685 -0.64256
vn -0.17359 0.02685 -0.98445
vn 0.49982 0.02685 -0.86571
vn 0.93935 0.02685 -0.34190
vn 0.93950 0.02004 0.34195
vn 0.49990 0.02004 0.86585
vn -0.17361 0.02004 0.98461
vn -0.76589 0.02004 0.64266
vn -0.99980 0.02004 0.00000
vn -0.76589 0.02004 -0.64266
vn -0.17361 0.02004 -0.98461
vn 0.49990 0.02004 -0.86585
vn 0.93950 0.02004 -0.34195
vn 0.93929 0.02917 0.34187
vn 0.49979 0.02917 0.86566
vn -0.17357 0.02917 0.98439
vn -0.76572 0.02917 0.64251
vn -0.99957 0.02917 0.00000
vn -0.76572 0.02917 -0.64251
vn -0.17357 0.02917 -0.98439
vn 0.49979 0.02917 -0.86566
vn 0.93929 0.02917 -0.34187
vn 0.93906 0.03681 0.34179
vn 0.49966 0.03681 0.86544
vn -0.17353 0.03681 0.98414
vn -0.76553 0.03681 0.64235
vn -0.99932 0.03681 0.00000
vn -0.76553 0.03681 -0.64235
vn -0.17353 0.03681 -0.98414
vn 0.49966 0.03681 -0.86544
vn 0.93906 0.03681 -0.34179
vn 0.93940 0.02487 0.34191
vn 0.49985 0.02487 0.86576
vn -0.17359 0.02487 0.98450
vn -0.76581 0.02487 0.64259
vn -0.99969 0.02487 0.00000
vn -0.76581 0.02487 -0.64259
vn -0.17359 0.02487 -0.98450
vn 0.49985 0.02487 -0.86576
vn 0.93940 0.02487 -0.34191
vn 0.93928 0.02971 0.34187
vn 0.49978 0.02971 0.86564
vn -0.17357 0.02971 0.98437
vn -0.76571 0.02971 0.64250
vn -0.99956 0.02971 0.00000
vn -0.76571 0.02971 -0.64250
vn -0.17357 0.02971 -0.98437
vn 0.49978 0.02971 -0.86564
vn 0.93928 0.02971 -0.34187
vn 0.93939 0.02546 0.34191
vn 0.49984 0.02546 0.86574
vn -0.17359 0.02546 0.98449
vn -0.76580 0.02546 0.64258
vn -0.99968 0.02546 0.00000
vn -0.76580 0.02546 -0.64258
vn -0.17359 0.02546 -0.98449
vn 0.49984 0.02546 -0.86574
vn 0.93939 0.02546 -0.34191
vn 0.93921 0.03192 0.34185
vn 0.49975 0.03192 0.86558
vn -0.17356 0.03192 0.98431
vn -0.76565 0.03192 0.64246
vn -0.99949 0.03192 0.00000
vn -0.76565 0.03192 -0.64246
vn -0.17356 0.03192 -0.98431
vn 0.49975 0.03192 -0.86558
vn 0.93921 0.03192 -0.34185
vn 0.93918 0.03295 0.34183
vn 0.49973 0.03295 0.86556
vn -0.17355 0.03295 0.98427
vn -0.76563 0.03295 0.64244
vn -0.99946 0.03295 0.00000
vn -0.76563 0.03295 -0.64244
vn -0.17355 0.03295 -0.98427
vn 0.49973 0.03295 -0.86556
vn 0.93918 0.03295 -0.34183
f 1/1/1 2/2/1 3/3/1
f 4/4/2 5/5/2 6/6/2
f 7/7/3 8/8/3 9/9/3
f 10/10/4 11/11/4 12/12/4
f 13/13/5 14/14/5 15/15/5
f 16/16/6 17/17/6 18/18/6
f 19/19/7 20/20/7 21/21/7
f 22/22/8 23/23/8 24/24/8
f 25/25/9 26/26/9 27/27/9
f 28/28/10 29/29/10 30/30/10
f 31/31/11 32/32/11 33/33/11
f 34/34/12 35/35/12 36/36/12
f 37/37/13 38/38/13 39/39/13
f 40/40/14 41/41/14 42/42/14
f 43/43/15 44/44/15 45/45/15
f 46/46/16 47/47/16 48/48/16
f 49/49/17 50/50/17 51/51/17
f 52/52/18 53/53/18 54/54/18
f 55/55/19 56/56/19 57/57/19
f 58/58/20 59/59/20 60/60/20
f 61/61/21 62/62/21 63/63/21
f 64/64/22 65/65/22 66/66/22
f 67/67/23 68/68/23 69/69/23
f 70/70/24 71/71/24 72/72/24
f 73/73/25 74/74/25 75/75/25
f 76/76/26 77/77/26 78/78/26
f 79/79/27 80/80/27 81/81/27
f 82/82/28 83/83/28 84/84/28
f 85/85/29 86/86/29 87/87/29
f 88/88/30 89/89/30 90/90/30
f 91/91/31 92/92/31 93/93/31
f 94/94/32 95/95/32 96/96/32
f 97/97/33 98/98/33 99/99/33
f 100/100/34 101/101/34 102/102/34
f 103/103/35 104/104/35 105/105/35
f 106/106/36 107/107/36 108/108/36
f 109/109/37 110/110/37 111/111/37
f 112/112/38 113/113/38 114/114/38
f 115/115/39 116/116/39 117/117/39
f 118/118/40 119/119/40 120/120/40
f 121/121/41 122/122/41 123/123/41
f 124/124/42 125/125/42 126/126/42
f 127/127/43 128/128/43 129/129/43
f 130/130/44 131/131/44 132/132/44
f 133/133/45 134/134/45 135/135/45
f 136/136/46 137/137/46 138/138/46
f 139/139/47 140/140/47 141/141/47
f 142/142/48 143/143/48 144/144/48
f 145/145/49 146/146/49 147/147/49
f 148/148/50 149/149/50 150/150/50
f 151/151/51 152/152/51 153/153/51
f 154/154/52 155/155/52 156/156/52
f 157/157/53 158/158/53 159/159/53
f 160/160/54 161/161/54 162/162/54
f 163/163/55 164/164/55 165/165/55
f 166/166/56 167/167/56 168/168/56
f 169/169/57 170/170/57 171/171/57
f 172/172/58 173/173/58 174/174/58
f 175/175/59 176/176/59 177/177/59
f 178/178/60 179/179/60 180/180/60
f 181/181/61 182/182/61 183/183/61
f 184/184/62 185/185/62 186/186/62
f 187/187/63 188/188/63 189/189/63
f 190/190/64 191/191/64 192/192/64
f 193/193/65 194/194/65 195/195/65
f 196/196/66 197/197/66 198/198/66
f 199/199/67 200/200/67 201/201/67
f 202/202/68 203/203/68 204/204/68
f 205/205/69 206/206/69 207/207/69
f 208/208/70 209/209/70 210/210/70
f 211/211/71 212/212/71 213/213/71
f 214/214/72 215/215/72 216/216/72
f 217/217/73 218/218/73 219/219/73
f 220/220/74 221/221/74 222/222/74
f 223/223/75 224/224/75 225/225/75
f 226/226/76 227/227/76 228/228/76
f 229/229/77 230/230/77 231/231/77
f 232/232/78 233/233/78 234/234/78
f 235/235/79 236/236/79 237/237/79
f 238/238/80 239/239/80 240/240/80
f 241/241/81 242/242/81 243/243/81
f 244/244/82 245/245/82 246/246/82
f 247/247/83 248/248/83 249/249/83
f 250/250/84 251/251/84 252/252/84
f 253/253/85 254/254/85 255/255/85
f 256/256/86 257/257/86 258/258/86
f 259/259/87 260/260/87 261/261/87
f 262/262/88 263/263/88 264/264/88
f 265/265/89 266/266/89 267/267/89
f 268/268/90 269/269/90 270/270/90
f 271/271/91 272/272/91 273/273/91
f 274/274/92 275/275/92 276/276/92
f 277/277/93 278/278/93 279/279/93
f 280/280/94 281/281/94 282/282/94
f 283/283/95 284/284/95 285/285/95
f 286/286/96 287/287/96 288/288/96
f 289/289/97 290/290/97 291/291/97
f 292/292/98 293/293/98 294/294/98
f 295/295/99 296/296/99 297/297/99
f 298/298/100 299/299/100 300/300/100
f 301/301/101 302/302/101 303/303/101
f 304/304/102 305/305/102 306/306/102
f 307/307/103 308/308/103 309/309/103
f 310/310/104 311/311/104 312/312/104
f 313/313/105 314/314/105 315/315/105
f 316/316/106 317/317/106 318/318/106
f 319/319/107 320/320/107 321/321/107
f 322/322/108 323/323/108 324/324/108
f 325/325/109 326/326/109 327/327/109
f 328/328/110 329/329/110 330/330/110
f 331/331/111 332/332/111 333/333/111
f 334/334/112 335/335/112 336/336/112
f 337/337/113 338/338/113 339/339/113
f 340/340/114 341/341/114 342/342/114
f 343/343/115 344/344/115 345/345/115
f 346/346/116 347/347/116 348/348/116
f 349/349/117 350/350/117 351/351/117
f 352/352/118 353/353/118 354/354/118
f 355/355/119 356/356/119 357/357/119
f 358/358/120 359/359/120 360/360/120
f 361/361/121 362/362/121 363/363/121
f 364/364/122 365/365/122 366/366/122
f 367/367/123 368/368/123 369/369/123
f 370/370/124 371/371/124 372/372/124
f 373/373/125 374/374/125 375/375/125
f 376/376/126 377/377/126 378/378/126
f 379/379/127 380/380/127 381/381/127
f 382/382/128 383/383/128 384/384/128
f 385/385/129 386/386/129 387/387/129
f 388/388/130 389/389/130 390/390/130
f 391/391/131 392/392/131 393/393/131
f 394/394/132 395/395/132 396/396/132
f 397/397/133 398/398/133 399/399/133
f 400/400/134 401/401/134 402/402/134
f 403/403/135 404/404/135 405/405/135
f 406/406/136 407/407/136 408/408/136
f 409/409/137 410/410/137 411/411/137
f 412/412/138 413/413/138 414/414/138
f 415/415/139 416/416/139 417/417/139
f 418/418/140 419/419/140 420/420/140
f 421/421/141 422/422/141 423/423/141
f 424/424/142 425/425/142 426/426/142
f 427/427/143 428/428/143 429/429/143
f 430/430/144 431/431/144 432/432/144
f 433/433/145 434/434/145 435/435/145
f 436/436/146 437/437/146 438/438/146
f 439/439/147 440/440/147 441/441/147
f 442/442/148 443/443/148 444/444/148
f 445/445/149 446/446/149 447/447/149
f 448/448/150 449/449/150 450/450/150
f 451/451/151 452/452/151 453/453/151
f 454/454/152 455/455/152 456/456/152
f 457/457/153 458/458/153 459/459/153
f 460/460/154 461/461/154 462/462/154
f 463/463/155 464/464/155 465/465/155
f 466/466/156 467/467/156 468/468/156
f 469/469/157 470/470/157 471/471/157
f 472/472/158 473/473/158 474/474/158
f 475/475/159 476/476/159 477/477/159
f 478/478/160 479/479/160 480/480/160
f 481/481/161 482/482/161 483/483/161
f 484/484/162 485/485/162 486/486/162
f 487/487/163 488/488/163 489/489/163
f 490/490/164 491/491/164 492/492/164
f 493/493/165 494/494/165 495/495/165
f 496/496/166 497/497/166 498/498/166
f 499/499/167 500/500/167 501/501/167
f 502/502/168 503/503/168 504/504/168
f 505/505/169 506/506/169 507/507/169
f 508/508/170 509/509/170 510/510/170
f 511/511/171 512/512/171 513/513/171
f 514/514/172 515/515/172 516/516/172
f 517/517/173 518/518/173 519/519/173
f 520/520/174 521/521/174 522/522/174
f 523/523/175 524/524/175 525/525/175
f 526/526/176 527/527/176 528/528/176
f 529/529/177 530/530/177 531/531/177
f 532/532/178 533/533/178 534/534/178
f 535/535/179 536/536/179 537/537/179
f 538/538/180 539/539/180 540/540/180
f 541/541/181 542/542/181 543/543/181
f 544/544/182 545/545/182 546/546/182
f 547/547/183 548/548/183 549/549/183
f 550/550/184 551/551/184 552/552/184
f 553/553/185 554/554/185 555/555/185
f 556/556/186 557/557/186 558/558/186
f 559/559/187 560/560/187 561/561/187
f 562/562/188 563/563/188 564/564/188
f 565/565/189 566/566/189 567/567/189
f 568/568/190 569/569/190 570/570/190
f 571/571/191 572/572/191 573/573/191
f 574/574/192 575/575/192 576/576/192
f 577/577/193 578/578/193 579/579/193
f 580/580/194 581/581/194 582/582/194
f 583/583/195 584/584/195 585/585/195
f 586/586/196 587/587/196 588/588/196
f 589/589/197 590/590/197 591/591/197
f 592/592/198 593/593/198 594/594/198
f 595/595/199 596/596/199 597/597/199
f 598/598/200 599/599/200 600/600/200
f 601/601/201 602/602/201 603/603/201
f 604/604/202 605/605/202 606/606/202
f 607/607/203 608/608/203 609/609/203
f 610/610/204 611/611/204 612/612/204
f 613/613/205 614/614/205 615/615/205
f 616/616/206 617/617/206 618/618/206
f 619/619/207 620/620/207 621/621/207
f 622/622/208 623/623/208 624/624/208
f 625/625/209 626/626/209 627/627/209
f 628/628/210 629/629/210 630/630/210
f 631/631/211 632/632/211 633/633/211
f 634/634/212 635/635/212 636/636/212
f 637/637/213 638/638/213 639/639/213
f 640/640/214 641/641/214 642/642/214
f 643/643/215 644/644/215 645/645/215
f 646/646/216 647/647/216 648/648/216
f 649/649/217 650/650/217 651/651/217
f 652/652/218 653/653/218 654/654/218
f 655/655/219 656/656/219 657/657/219
f 658/658/220 659/659/220 660/660/220
f 661/661/221 662/662/221 663/663/221
f 664/664/222 665/665/222 666/666/222
f 667/667/223 668/668/223 669/669/223
f 670/670/224 671/671/224 672/672/224
f 673/673/225 674/674/225 675/675/225
f 676/676/226 677/677/226 678/678/226
f 679/679/227 680/680/227 681/681/227
f 682/682/228 683/683/228 684/684/228
f 685/685/229 686/686/229 687/687/229
f 688/688/230 689/689/230 690/690/230
f 691/691/231 692/692/231 693/693/231
f 694/694/232 695/695/232 696/696/232
f 697/697/233 698/698/233 699/699/233
f 700/700/234 701/701/234 702/702/234
f 703/703/235 704/704/235 705/705/235
f 706/706/236 707/707/236 708/708/236
f 709/709/237 710/710/237 711/711/237
f 712/712/238 713/713/238 714/714/238
f 715/715/239 716/716/239 717/717/239
f 718/718/240 719/719/240 720/720/240
f 721/721/241 722/722/241 723/723/241
f 724/724/242 725/725/242 726/726/242
f 727/727/243 728/728/243 729/729/243
f 730/730/244 731/731/244 732/732/244
f 733/733/245 734/734/245 735/735/245
f 736/736/246 737/737/246 738/738/246
f 739/739/247 740/740/247 741/741/247
f 742/742/248 743/743/248 744/744/248
f 745/745/249 746/746/249 747/747/249
f 748/748/250 749/749/250 750/750/250
f 751/751/251 752/752/251 753/753/251
f 754/754/252 755/755/252 756/756/252
f 757/757/253 758/758/253 759/759/253
f 760/760/254 761/761/254 762/762/254
f 763/763/255 764/764/255 765/765/255
f 766/766/256 767/767/256 768/768/256
f 769/769/257 770/770/257 771/771/257
f 772/772/258 773/773/258 774/774/258
f 775/775/259 776/776/259 777/777/259
f 778/778/260 779/779/260 780/780/260
f 781/781/261 782/782/261 783/783/261
f 784/784/262 785/785/262 786/786/262
f 787/787/263 788/788/263 789/789/263
f 790/790/264 791/791/264 792/792/264
f 793/793/265 794/794/265 795/795/265
f 796/796/266 797/797/266 798/798/266
f 799/799/267 800/800/267 801/801/267
f 802/802/268 803/803/268 804/804/268
f 805/805/269 806/806/269 807/807/269
f 808/808/270 809/809/270 810/810/270
f 811/811/271 812/812/271 813/813/271
f 814/814/272 815/815/272 816/816/272
f 817/817/273 818/818/273 819/819/273
f 820/820/274 821/821/274 822/822/274
f 823/823/275 824/824/275 825/825/275
f 826/826/276 827/827/276 828/828/276
f 829/829/277 830/830/277 831/831/277
f 832/832/278 833/833/278 834/834/278
f 835/835/279 836/836/279 837/837/279