vt 0 0
vt 1 0
vt 1 1
vt 0 1
# Generated original RTS FPS environment
mtllib environment.mtl
usemtl wood
v -0.47500 -0.47500 -0.47500
v -0.47500 0.47500 -0.47500
v 0.47500 0.47500 -0.47500
v 0.47500 -0.47500 -0.47500
f 1/1 2/2 3/3
f 1/1 3/3 4/4
v -0.47500 -0.47500 0.47500
v 0.47500 -0.47500 0.47500
v 0.47500 0.47500 0.47500
v -0.47500 0.47500 0.47500
f 5/1 6/2 7/3
f 5/1 7/3 8/4
v -0.47500 -0.47500 -0.47500
v -0.47500 -0.47500 0.47500
v -0.47500 0.47500 0.47500
v -0.47500 0.47500 -0.47500
f 9/1 10/2 11/3
f 9/1 11/3 12/4
v 0.47500 -0.47500 -0.47500
v 0.47500 0.47500 -0.47500
v 0.47500 0.47500 0.47500
v 0.47500 -0.47500 0.47500
f 13/1 14/2 15/3
f 13/1 15/3 16/4
v -0.47500 0.47500 -0.47500
v -0.47500 0.47500 0.47500
v 0.47500 0.47500 0.47500
v 0.47500 0.47500 -0.47500
f 17/1 18/2 19/3
f 17/1 19/3 20/4
v -0.47500 -0.47500 -0.47500
v 0.47500 -0.47500 -0.47500
v 0.47500 -0.47500 0.47500
v -0.47500 -0.47500 0.47500
f 21/1 22/2 23/3
f 21/1 23/3 24/4
v -0.49000 -0.38000 -0.49000
v -0.49000 -0.22000 -0.49000
v 0.49000 -0.22000 -0.49000
v 0.49000 -0.38000 -0.49000
f 25/1 26/2 27/3
f 25/1 27/3 28/4
v -0.49000 -0.38000 0.49000
v 0.49000 -0.38000 0.49000
v 0.49000 -0.22000 0.49000
v -0.49000 -0.22000 0.49000
f 29/1 30/2 31/3
f 29/1 31/3 32/4
v -0.49000 -0.38000 -0.49000
v -0.49000 -0.38000 0.49000
v -0.49000 -0.22000 0.49000
v -0.49000 -0.22000 -0.49000
f 33/1 34/2 35/3
f 33/1 35/3 36/4
v 0.49000 -0.38000 -0.49000
v 0.49000 -0.22000 -0.49000
v 0.49000 -0.22000 0.49000
v 0.49000 -0.38000 0.49000
f 37/1 38/2 39/3
f 37/1 39/3 40/4
v -0.49000 -0.22000 -0.49000
v -0.49000 -0.22000 0.49000
v 0.49000 -0.22000 0.49000
v 0.49000 -0.22000 -0.49000
f 41/1 42/2 43/3
f 41/1 43/3 44/4
v -0.49000 -0.38000 -0.49000
v 0.49000 -0.38000 -0.49000
v 0.49000 -0.38000 0.49000
v -0.49000 -0.38000 0.49000
f 45/1 46/2 47/3
f 45/1 47/3 48/4
v -0.49000 -0.18000 -0.49000
v -0.49000 -0.02000 -0.49000
v 0.49000 -0.02000 -0.49000
v 0.49000 -0.18000 -0.49000
f 49/1 50/2 51/3
f 49/1 51/3 52/4
v -0.49000 -0.18000 0.49000
v 0.49000 -0.18000 0.49000
v 0.49000 -0.02000 0.49000
v -0.49000 -0.02000 0.49000
f 53/1 54/2 55/3
f 53/1 55/3 56/4
v -0.49000 -0.18000 -0.49000
v -0.49000 -0.18000 0.49000
v -0.49000 -0.02000 0.49000
v -0.49000 -0.02000 -0.49000
f 57/1 58/2 59/3
f 57/1 59/3 60/4
v 0.49000 -0.18000 -0.49000
v 0.49000 -0.02000 -0.49000
v 0.49000 -0.02000 0.49000
v 0.49000 -0.18000 0.49000
f 61/1 62/2 63/3
f 61/1 63/3 64/4
v -0.49000 -0.02000 -0.49000
v -0.49000 -0.02000 0.49000
v 0.49000 -0.02000 0.49000
v 0.49000 -0.02000 -0.49000
f 65/1 66/2 67/3
f 65/1 67/3 68/4
v -0.49000 -0.18000 -0.49000
v 0.49000 -0.18000 -0.49000
v 0.49000 -0.18000 0.49000
v -0.49000 -0.18000 0.49000
f 69/1 70/2 71/3
f 69/1 71/3 72/4
v -0.49000 0.02000 -0.49000
v -0.49000 0.18000 -0.49000
v 0.49000 0.18000 -0.49000
v 0.49000 0.02000 -0.49000
f 73/1 74/2 75/3
f 73/1 75/3 76/4
v -0.49000 0.02000 0.49000
v 0.49000 0.02000 0.49000
v 0.49000 0.18000 0.49000
v -0.49000 0.18000 0.49000
f 77/1 78/2 79/3
f 77/1 79/3 80/4
v -0.49000 0.02000 -0.49000
v -0.49000 0.02000 0.49000
v -0.49000 0.18000 0.49000
v -0.49000 0.18000 -0.49000
f 81/1 82/2 83/3
f 81/1 83/3 84/4
v 0.49000 0.02000 -0.49000
v 0.49000 0.18000 -0.49000
v 0.49000 0.18000 0.49000
v 0.49000 0.02000 0.49000
f 85/1 86/2 87/3
f 85/1 87/3 88/4
v -0.49000 0.18000 -0.49000
v -0.49000 0.18000 0.49000
v 0.49000 0.18000 0.49000
v 0.49000 0.18000 -0.49000
f 89/1 90/2 91/3
f 89/1 91/3 92/4
v -0.49000 0.02000 -0.49000
v 0.49000 0.02000 -0.49000
v 0.49000 0.02000 0.49000
v -0.49000 0.02000 0.49000
f 93/1 94/2 95/3
f 93/1 95/3 96/4
v -0.49000 0.22000 -0.49000
v -0.49000 0.38000 -0.49000
v 0.49000 0.38000 -0.49000
v 0.49000 0.22000 -0.49000
f 97/1 98/2 99/3
f 97/1 99/3 100/4
v -0.49000 0.22000 0.49000
v 0.49000 0.22000 0.49000
v 0.49000 0.38000 0.49000
v -0.49000 0.38000 0.49000
f 101/1 102/2 103/3
f 101/1 103/3 104/4
v -0.49000 0.22000 -0.49000
v -0.49000 0.22000 0.49000
v -0.49000 0.38000 0.49000
v -0.49000 0.38000 -0.49000
f 105/1 106/2 107/3
f 105/1 107/3 108/4
v 0.49000 0.22000 -0.49000
v 0.49000 0.38000 -0.49000
v 0.49000 0.38000 0.49000
v 0.49000 0.22000 0.49000
f 109/1 110/2 111/3
f 109/1 111/3 112/4
v -0.49000 0.38000 -0.49000
v -0.49000 0.38000 0.49000
v 0.49000 0.38000 0.49000
v 0.49000 0.38000 -0.49000
f 113/1 114/2 115/3
f 113/1 115/3 116/4
v -0.49000 0.22000 -0.49000
v 0.49000 0.22000 -0.49000
v 0.49000 0.22000 0.49000
v -0.49000 0.22000 0.49000
f 117/1 118/2 119/3
f 117/1 119/3 120/4
usemtl dark
v -0.48000 -0.50000 -0.50000
v -0.48000 0.50000 -0.50000
v -0.38000 0.50000 -0.50000
v -0.38000 -0.50000 -0.50000
f 121/1 122/2 123/3
f 121/1 123/3 124/4
v -0.48000 -0.50000 0.50000
v -0.38000 -0.50000 0.50000
v -0.38000 0.50000 0.50000
v -0.48000 0.50000 0.50000
f 125/1 126/2 127/3
f 125/1 127/3 128/4
v -0.48000 -0.50000 -0.50000
v -0.48000 -0.50000 0.50000
v -0.48000 0.50000 0.50000
v -0.48000 0.50000 -0.50000
f 129/1 130/2 131/3
f 129/1 131/3 132/4
v -0.38000 -0.50000 -0.50000
v -0.38000 0.50000 -0.50000
v -0.38000 0.50000 0.50000
v -0.38000 -0.50000 0.50000
f 133/1 134/2 135/3
f 133/1 135/3 136/4
v -0.48000 0.50000 -0.50000
v -0.48000 0.50000 0.50000
v -0.38000 0.50000 0.50000
v -0.38000 0.50000 -0.50000
f 137/1 138/2 139/3
f 137/1 139/3 140/4
v -0.48000 -0.50000 -0.50000
v -0.38000 -0.50000 -0.50000
v -0.38000 -0.50000 0.50000
v -0.48000 -0.50000 0.50000
f 141/1 142/2 143/3
f 141/1 143/3 144/4
v -0.50000 -0.50000 -0.48000
v -0.50000 0.50000 -0.48000
v 0.50000 0.50000 -0.48000
v 0.50000 -0.50000 -0.48000
f 145/1 146/2 147/3
f 145/1 147/3 148/4
v -0.50000 -0.50000 -0.38000
v 0.50000 -0.50000 -0.38000
v 0.50000 0.50000 -0.38000
v -0.50000 0.50000 -0.38000
f 149/1 150/2 151/3
f 149/1 151/3 152/4
v -0.50000 -0.50000 -0.48000
v -0.50000 -0.50000 -0.38000
v -0.50000 0.50000 -0.38000
v -0.50000 0.50000 -0.48000
f 153/1 154/2 155/3
f 153/1 155/3 156/4
v 0.50000 -0.50000 -0.48000
v 0.50000 0.50000 -0.48000
v 0.50000 0.50000 -0.38000
v 0.50000 -0.50000 -0.38000
f 157/1 158/2 159/3
f 157/1 159/3 160/4
v -0.50000 0.50000 -0.48000
v -0.50000 0.50000 -0.38000
v 0.50000 0.50000 -0.38000
v 0.50000 0.50000 -0.48000
f 161/1 162/2 163/3
f 161/1 163/3 164/4
v -0.50000 -0.50000 -0.48000
v 0.50000 -0.50000 -0.48000
v 0.50000 -0.50000 -0.38000
v -0.50000 -0.50000 -0.38000
f 165/1 166/2 167/3
f 165/1 167/3 168/4
v 0.38000 -0.50000 -0.50000
v 0.38000 0.50000 -0.50000
v 0.48000 0.50000 -0.50000
v 0.48000 -0.50000 -0.50000
f 169/1 170/2 171/3
f 169/1 171/3 172/4
v 0.38000 -0.50000 0.50000
v 0.48000 -0.50000 0.50000
v 0.48000 0.50000 0.50000
v 0.38000 0.50000 0.50000
f 173/1 174/2 175/3
f 173/1 175/3 176/4
v 0.38000 -0.50000 -0.50000
v 0.38000 -0.50000 0.50000
v 0.38000 0.50000 0.50000
v 0.38000 0.50000 -0.50000
f 177/1 178/2 179/3
f 177/1 179/3 180/4
v 0.48000 -0.50000 -0.50000
v 0.48000 0.50000 -0.50000
v 0.48000 0.50000 0.50000
v 0.48000 -0.50000 0.50000
f 181/1 182/2 183/3
f 181/1 183/3 184/4
v 0.38000 0.50000 -0.50000
v 0.38000 0.50000 0.50000
v 0.48000 0.50000 0.50000
v 0.48000 0.50000 -0.50000
f 185/1 186/2 187/3
f 185/1 187/3 188/4
v 0.38000 -0.50000 -0.50000
v 0.48000 -0.50000 -0.50000
v 0.48000 -0.50000 0.50000
v 0.38000 -0.50000 0.50000
f 189/1 190/2 191/3
f 189/1 191/3 192/4
v -0.50000 -0.50000 0.38000
v -0.50000 0.50000 0.38000
v 0.50000 0.50000 0.38000
v 0.50000 -0.50000 0.38000
f 193/1 194/2 195/3
f 193/1 195/3 196/4
v -0.50000 -0.50000 0.48000
v 0.50000 -0.50000 0.48000
v 0.50000 0.50000 0.48000
v -0.50000 0.50000 0.48000
f 197/1 198/2 199/3
f 197/1 199/3 200/4
v -0.50000 -0.50000 0.38000
v -0.50000 -0.50000 0.48000
v -0.50000 0.50000 0.48000
v -0.50000 0.50000 0.38000
f 201/1 202/2 203/3
f 201/1 203/3 204/4
v 0.50000 -0.50000 0.38000
v 0.50000 0.50000 0.38000
v 0.50000 0.50000 0.48000
v 0.50000 -0.50000 0.48000
f 205/1 206/2 207/3
f 205/1 207/3 208/4
v -0.50000 0.50000 0.38000
v -0.50000 0.50000 0.48000
v 0.50000 0.50000 0.48000
v 0.50000 0.50000 0.38000
f 209/1 210/2 211/3
f 209/1 211/3 212/4
v -0.50000 -0.50000 0.38000
v 0.50000 -0.50000 0.38000
v 0.50000 -0.50000 0.48000
v -0.50000 -0.50000 0.48000
f 213/1 214/2 215/3
f 213/1 215/3 216/4
usemtl ochre
v -0.17000 0.04000 -0.50000
v -0.17000 0.22000 -0.50000
v 0.17000 0.22000 -0.50000
v 0.17000 0.04000 -0.50000
f 217/1 218/2 219/3
f 217/1 219/3 220/4
v -0.17000 0.04000 -0.49000
v 0.17000 0.04000 -0.49000
v 0.17000 0.22000 -0.49000
v -0.17000 0.22000 -0.49000
f 221/1 222/2 223/3
f 221/1 223/3 224/4
v -0.17000 0.04000 -0.50000
v -0.17000 0.04000 -0.49000
v -0.17000 0.22000 -0.49000
v -0.17000 0.22000 -0.50000
f 225/1 226/2 227/3
f 225/1 227/3 228/4
v 0.17000 0.04000 -0.50000
v 0.17000 0.22000 -0.50000
v 0.17000 0.22000 -0.49000
v 0.17000 0.04000 -0.49000
f 229/1 230/2 231/3
f 229/1 231/3 232/4
v -0.17000 0.22000 -0.50000
v -0.17000 0.22000 -0.49000
v 0.17000 0.22000 -0.49000
v 0.17000 0.22000 -0.50000
f 233/1 234/2 235/3
f 233/1 235/3 236/4
v -0.17000 0.04000 -0.50000
v 0.17000 0.04000 -0.50000
v 0.17000 0.04000 -0.49000
v -0.17000 0.04000 -0.49000
f 237/1 238/2 239/3
f 237/1 239/3 240/4
